<svg xmlns="http://www.w3.org/2000/svg" xmlns:xlink="http://www.w3.org/1999/xlink" viewBox="0 0 34.58 34"><defs><style>.cls-1{fill:none;}.cls-2{clip-path:url(#clip-path);}</style><clipPath id="clip-path" transform="translate(0.06)"><rect class="cls-1" width="34.46" height="34"/></clipPath></defs><g id="Layer_2" data-name="Layer 2"><g id="Layer_1-2" data-name="Layer 1"><g class="cls-2"><path d="M15.08,34H4.62a2.2,2.2,0,0,1-1.51-.62,2.14,2.14,0,0,1-.62-1.51V30.56a3.43,3.43,0,0,1,.42-1.65l.83-1.54a5.3,5.3,0,0,0,.63-2.23A5.17,5.17,0,0,0,4,22.84L3.41,21.4a2.65,2.65,0,0,1-.19-1V14.51a2.55,2.55,0,0,1,.43-1.46L6,9.36a4.17,4.17,0,0,0,.65-2.28V3.48a.58.58,0,0,1,.58-.57h5.15a.58.58,0,0,1,.41.17.66.66,0,0,1,.17.4V7.05a4.11,4.11,0,0,0,.65,2.28L16,13a2.55,2.55,0,0,1,.43,1.46v5.88a2.49,2.49,0,0,1-.19,1l-.58,1.44a5.24,5.24,0,0,0-.39,2A5.47,5.47,0,0,0,16,27.34l.84,1.54a3.4,3.4,0,0,1,.42,1.65v1.31a2.1,2.1,0,0,1-.16.82,2,2,0,0,1-.46.7,1.89,1.89,0,0,1-.69.47,2.2,2.2,0,0,1-.83.17ZM7.84,4.06v3A5.32,5.32,0,0,1,7,10L4.59,13.64a1.56,1.56,0,0,0-.25.84v5.88a1.43,1.43,0,0,0,.12.58L5,22.38a6.53,6.53,0,0,1,.47,2.43,6.45,6.45,0,0,1-.78,3.07L3.9,29.42a2.26,2.26,0,0,0-.28,1.11v1.31a1,1,0,0,0,.29.69.94.94,0,0,0,.69.29H15.06a1,1,0,0,0,1-1V30.53a2.37,2.37,0,0,0-.28-1.11l-.83-1.54a6.45,6.45,0,0,1-.78-3.07,6.53,6.53,0,0,1,.47-2.43L15.24,21a1.6,1.6,0,0,0,.11-.57V14.49a1.53,1.53,0,0,0-.25-.83L12.71,10a5.32,5.32,0,0,1-.86-2.9v-3Z" transform="translate(0.06)"/><path d="M13,4.06H6.69a1,1,0,0,1-1-1V1.55A1.57,1.57,0,0,1,6.11.45,1.54,1.54,0,0,1,7.2,0h5.29a1.54,1.54,0,0,1,1.09.45A1.57,1.57,0,0,1,14,1.55V3a1,1,0,0,1-1,1ZM6.8,2.91h6.09V1.55a.4.4,0,0,0-.12-.28.39.39,0,0,0-.28-.12H7.2a.4.4,0,0,0-.15,0,.41.41,0,0,0-.13.08.42.42,0,0,0-.09.14.37.37,0,0,0,0,.15Z" transform="translate(0.06)"/><path d="M15.79,14.36H3.89a.54.54,0,0,1-.22,0,.59.59,0,0,1-.19-.13A.57.57,0,0,1,3.36,14a.59.59,0,0,1,0-.22.54.54,0,0,1,0-.22.62.62,0,0,1,.12-.19.55.55,0,0,1,.19-.12.54.54,0,0,1,.22,0h11.9a.58.58,0,0,1,.58.58.54.54,0,0,1-.17.4.57.57,0,0,1-.41.17Z" transform="translate(0.06)"/><path d="M15.79,21.43h-12a.54.54,0,0,1-.4-.17.57.57,0,0,1-.17-.41.58.58,0,0,1,.57-.57h12a.57.57,0,0,1,.41.17.54.54,0,0,1,.17.4.58.58,0,0,1-.58.58Z" transform="translate(0.06)"/><path d="M29,34H23.74a2,2,0,0,1-1.26-.46,1.93,1.93,0,0,1-.66-1.17L20.21,18.24a.65.65,0,0,1,0-.24.57.57,0,0,1,.13-.21.45.45,0,0,1,.19-.14.59.59,0,0,1,.23,0H32a.69.69,0,0,1,.24,0,.52.52,0,0,1,.19.14.45.45,0,0,1,.12.21.5.5,0,0,1,0,.24L30.93,32.33a2,2,0,0,1-.66,1.19A1.9,1.9,0,0,1,29,34ZM21.42,18.75,23,32.21a.77.77,0,0,0,.28.48.83.83,0,0,0,.51.18H29a.79.79,0,0,0,.51-.18.81.81,0,0,0,.28-.48l1.52-13.43Z" transform="translate(0.06)"/><path d="M29.38,22.74a18.46,18.46,0,0,1-3.71-.55,8.37,8.37,0,0,0-4.27.31.58.58,0,0,1-.45,0,.53.53,0,0,1-.2-.13.67.67,0,0,1-.12-.2.59.59,0,0,1,0-.23.46.46,0,0,1,.06-.22.52.52,0,0,1,.14-.19.56.56,0,0,1,.2-.11,9.57,9.57,0,0,1,4.92-.37c2.33.51,3.88.84,5.4.13a.61.61,0,0,1,.44,0,.56.56,0,0,1,.32.3.61.61,0,0,1,0,.44.56.56,0,0,1-.3.32,5.41,5.41,0,0,1-2.41.51Z" transform="translate(0.06)"/><path d="M32,18.75H20.74a1.43,1.43,0,0,1-.58-.12,1.48,1.48,0,0,1-.47-.35,1.29,1.29,0,0,1-.27-.5,1.22,1.22,0,0,1-.05-.57A7,7,0,0,1,21.55,13a4.19,4.19,0,0,1,2.89-1.11h3.87A4.19,4.19,0,0,1,31.2,13a7.06,7.06,0,0,1,2.19,4.19,1.56,1.56,0,0,1,0,.57,1.46,1.46,0,0,1-.28.5,1.3,1.3,0,0,1-.48.35,1.42,1.42,0,0,1-.57.12Zm-7.57-5.7a3.07,3.07,0,0,0-2.11.81,5.85,5.85,0,0,0-1.82,3.51.11.11,0,0,0,0,.08.1.1,0,0,0,0,.07.16.16,0,0,0,.08.06l.1,0H32l.1,0a.24.24,0,0,0,.08-.06.16.16,0,0,0,0-.07.11.11,0,0,0,0-.08,5.8,5.8,0,0,0-1.82-3.51,3.07,3.07,0,0,0-2.1-.81Z" transform="translate(0.06)"/><path d="M26.68,13.05h-.07a.6.6,0,0,1-.22-.06.8.8,0,0,1-.17-.15.65.65,0,0,1-.12-.44l.28-2.5a2,2,0,0,1,1.4-1.69L31.8,7a.58.58,0,0,1,.41.06.59.59,0,0,1,.27.33.6.6,0,0,1-.35.71l-4,1.22a.87.87,0,0,0-.41.27.91.91,0,0,0-.19.45l-.27,2.49a.59.59,0,0,1-.18.38.58.58,0,0,1-.39.15Z" transform="translate(0.06)"/><path d="M25,26.1a1.46,1.46,0,0,1-.79-.23,1.51,1.51,0,0,1-.52-.63,1.36,1.36,0,0,1-.08-.82A1.3,1.3,0,0,1,24,23.7a1.38,1.38,0,0,1,.72-.39,1.43,1.43,0,0,1,1.46.6,1.42,1.42,0,0,1,.23.78A1.4,1.4,0,0,1,25,26.1Zm0-1.66a.3.3,0,0,0-.16.08.27.27,0,0,0-.06.17.24.24,0,0,0,.06.17A.26.26,0,0,0,25,25a.21.21,0,0,0,.11,0,.21.21,0,0,0,.1-.06.22.22,0,0,0,.07-.09.36.36,0,0,0,0-.11.52.52,0,0,0,0-.11l-.07-.09a.31.31,0,0,0-.1,0,.21.21,0,0,0-.11,0Z" transform="translate(0.06)"/><path d="M27.74,30.69a1.58,1.58,0,0,1-.86-.26,1.54,1.54,0,0,1-.57-.69,1.68,1.68,0,0,1-.09-.89,1.5,1.5,0,0,1,.43-.79,1.49,1.49,0,0,1,.79-.42,1.51,1.51,0,0,1,.89.09,1.47,1.47,0,0,1,.69.57,1.54,1.54,0,0,1-1.28,2.39Zm0-2a.4.4,0,0,0-.15,0,.53.53,0,0,0-.21.21.4.4,0,0,0,0,.15.37.37,0,0,0,0,.15.38.38,0,0,0,.09.13.5.5,0,0,0,.12.08.4.4,0,0,0,.15,0,.33.33,0,0,0,.15,0,.33.33,0,0,0,.21-.21.37.37,0,0,0,0-.15.39.39,0,0,0-.12-.25.39.39,0,0,0-.27-.11Z" transform="translate(0.06)"/><path d="M33.88,34H.58a.62.62,0,0,1-.24,0,.72.72,0,0,1-.21-.12.56.56,0,0,1-.14-.2.59.59,0,0,1,0-.23.69.69,0,0,1,0-.24A.52.52,0,0,1,.13,33a.55.55,0,0,1,.21-.12.62.62,0,0,1,.24,0h33.3a.65.65,0,0,1,.24,0,.55.55,0,0,1,.21.12.52.52,0,0,1,.14.19.69.69,0,0,1,.05.24.59.59,0,0,1-.05.23.56.56,0,0,1-.14.2.72.72,0,0,1-.21.12.65.65,0,0,1-.24,0Z" transform="translate(0.06)"/></g></g></g></svg>