<svg xmlns="http://www.w3.org/2000/svg" viewBox="0 0 16.53 30"><g id="Layer_2" data-name="Layer 2"><g id="Layer_1-2" data-name="Layer 1"><path d="M5,18.67c-.21,0-.4-.06-.44-.28a3.38,3.38,0,0,1,0-.78.44.44,0,0,1,.87,0c0,.11,0,.22,0,.32S5.46,18.68,5,18.67Z"/><path d="M2.52,30l-.23-.11a1.49,1.49,0,0,1-1-1.42A1.34,1.34,0,0,0,1,27.58a4.58,4.58,0,0,1-1-2.85Q0,18.6,0,12.46A5,5,0,0,1,1.09,9.32a.85.85,0,0,0,.19-.52A1.63,1.63,0,0,1,3,7.06c2.39,0,4.78,0,7.18,0,.09,0,.54.05.59.41a.36.36,0,0,1-.25.43,1.11,1.11,0,0,1-.4.06H3a.7.7,0,0,0-.79.85H14.34A.69.69,0,0,0,13.61,8H12.32a1.18,1.18,0,0,1-.26,0,.42.42,0,0,1-.38-.44.4.4,0,0,1,.41-.42,17.21,17.21,0,0,1,1.9,0,1.47,1.47,0,0,1,1.24,1.42,1.49,1.49,0,0,0,.36,1,4.61,4.61,0,0,1,.94,2.83q0,6.15,0,12.3a4.71,4.71,0,0,1-1.07,3,.88.88,0,0,0-.22.63A1.54,1.54,0,0,1,14.08,30,.18.18,0,0,0,14,30Zm13.11-5.07H6a2.34,2.34,0,0,1-.38,0,.4.4,0,0,1-.35-.4c0-.48.56-.47.69-.47h9.69V12.56H.91V24H3.8c.38,0,.59.22.54.53s-.29.37-.55.37H.91a3.81,3.81,0,0,0,.83,2.2.5.5,0,0,0,.46.24H14.33a.48.48,0,0,0,.36-.13A3.75,3.75,0,0,0,15.63,24.93Zm-.05-13.28a4.4,4.4,0,0,0-.79-1.71.49.49,0,0,0-.46-.23H2.17a.46.46,0,0,0-.31.09A4,4,0,0,0,1,11.65ZM14.35,28.26H2.18a.73.73,0,0,0,.8.86H13.49C14.09,29.12,14.37,28.85,14.35,28.26Z"/><path d="M4.8,5.08A1.46,1.46,0,0,1,6.29,3.64,1.48,1.48,0,1,1,4.8,5.08Zm1.46.61a.6.6,0,0,0,.6-.59.63.63,0,0,0-.59-.58.62.62,0,0,0-.59.61A.58.58,0,0,0,6.26,5.69Z"/><path d="M4.87,3.13A1.32,1.32,0,0,1,3.52,4.45,1.34,1.34,0,0,1,2.2,3.13,1.36,1.36,0,0,1,3.54,1.78,1.34,1.34,0,0,1,4.87,3.13ZM3.53,2.68a.43.43,0,0,0-.43.46.45.45,0,0,0,.43.43A.49.49,0,0,0,4,3.12.45.45,0,0,0,3.53,2.68Z"/><path d="M6.11,0A1.17,1.17,0,0,0,4.93,1.16,1.18,1.18,0,0,0,6.09,2.34,1.17,1.17,0,0,0,7.27,1.18,1.16,1.16,0,0,0,6.11,0Zm0,1.59a.37.37,0,0,1,0-.74A.37.37,0,0,1,6.13,1.59Z"/><path d="M8.26,19.15A1.86,1.86,0,0,1,7,18.59a.43.43,0,0,1,0-.63.44.44,0,0,1,.62,0,1,1,0,0,0,1.43,0,.44.44,0,0,1,.63,0,.43.43,0,0,1,0,.62A1.85,1.85,0,0,1,8.26,19.15Z"/><path d="M11.63,18.67c-.21,0-.4-.06-.44-.28a2.9,2.9,0,0,1,0-.78.43.43,0,0,1,.86,0c0,.11,0,.22,0,.32S12.12,18.68,11.63,18.67Z"/></g></g></svg>