<svg xmlns="http://www.w3.org/2000/svg" viewBox="0 0 23 30.03"><g id="Layer_2" data-name="Layer 2"><g id="Layer_1-2" data-name="Layer 1"><path d="M15,27.35H8a.58.58,0,0,1-.19,0,.57.57,0,0,1-.16-.11L5.78,25.4a5.5,5.5,0,0,1-1.69-3.94V16a.48.48,0,0,1,.49-.49H18.43a.5.5,0,0,1,.35.14.56.56,0,0,1,.15.35v5.49a5.56,5.56,0,0,1-1.7,3.94l-1.92,1.79A.48.48,0,0,1,15,27.35Zm-6.72-1h6.52l1.77-1.66a4.59,4.59,0,0,0,1-1.48,4.48,4.48,0,0,0,.37-1.76v-5H5.07v5a4.48,4.48,0,0,0,.37,1.76,4.59,4.59,0,0,0,1,1.48Z"/><path d="M18.69,16.45H4.3A1.58,1.58,0,0,1,3.17,16a1.54,1.54,0,0,1-.47-1.11,1.82,1.82,0,0,1,.54-1.28,1.88,1.88,0,0,1,1.31-.53h13.9a1.84,1.84,0,0,1,1.3.53,1.79,1.79,0,0,1,.55,1.28,1.53,1.53,0,0,1-.12.6,1.65,1.65,0,0,1-.35.51,1.63,1.63,0,0,1-1.14.46ZM4.55,14a.86.86,0,0,0-.6.25.79.79,0,0,0-.26.59.56.56,0,0,0,.18.42.58.58,0,0,0,.43.18H18.69a.6.6,0,0,0,.44-.18.59.59,0,0,0,.17-.42.82.82,0,0,0-.25-.59.86.86,0,0,0-.6-.25Z"/><path d="M16.38,30H6.61a2.91,2.91,0,0,1-1.12-.23,2.76,2.76,0,0,1-.91-.67L2.84,27.19a.58.58,0,0,1-.12-.25.51.51,0,0,1,0-.27A.55.55,0,0,1,3,26.46a.5.5,0,0,1,.27-.08H19.78a.5.5,0,0,1,.27.08.48.48,0,0,1,.19.21.5.5,0,0,1,0,.27.47.47,0,0,1-.11.25l-1.74,1.94a2.66,2.66,0,0,1-.92.67A2.84,2.84,0,0,1,16.38,30ZM4.31,27.35l1,1.11a1.53,1.53,0,0,0,.59.41,1.68,1.68,0,0,0,.7.14h9.77a1.73,1.73,0,0,0,.71-.14,1.58,1.58,0,0,0,.58-.41l1-1.11Z"/><path d="M9.67,11.71a.53.53,0,0,1-.24-.06l-.15-.12a.51.51,0,0,1-.09-.16.43.43,0,0,1,0-.19A.6.6,0,0,1,9.23,11l.56-1.1a1.7,1.7,0,0,0,.15-1.21,1.73,1.73,0,0,0-.71-1A2.73,2.73,0,0,1,8.18,6.27a2.6,2.6,0,0,1,.05-1.74l1-2.69a.51.51,0,0,1,.26-.24.5.5,0,0,1,.36,0,.47.47,0,0,1,.27.23.43.43,0,0,1,0,.35l-1,2.69A1.63,1.63,0,0,0,9.13,6a1.67,1.67,0,0,0,.67.9,2.76,2.76,0,0,1,1.09,1.57,2.67,2.67,0,0,1-.24,1.9l-.56,1.1a.39.39,0,0,1-.18.18A.53.53,0,0,1,9.67,11.71Z"/><path d="M13.56,10.2a.46.46,0,0,1-.23-.06.47.47,0,0,1-.24-.28.5.5,0,0,1,0-.38l.56-1.1a1.69,1.69,0,0,0-.56-2.21,2.73,2.73,0,0,1-1-1.41,2.6,2.6,0,0,1,0-1.74l1-2.69a.42.42,0,0,1,.1-.17.58.58,0,0,1,.15-.11.45.45,0,0,1,.19,0,.64.64,0,0,1,.2,0,.59.59,0,0,1,.17.1.57.57,0,0,1,.11.16.41.41,0,0,1,0,.19.63.63,0,0,1,0,.19l-1,2.69a1.69,1.69,0,0,0,0,1.11,1.77,1.77,0,0,0,.67.9,2.73,2.73,0,0,1,1.1,1.57,2.67,2.67,0,0,1-.24,1.9L14,9.94a.39.39,0,0,1-.18.18A.49.49,0,0,1,13.56,10.2Z"/><path d="M16.29,18.59H4.58a.45.45,0,0,1-.35-.15.46.46,0,0,1,0-.68.45.45,0,0,1,.35-.15H16.29a.49.49,0,0,1,.35.15.48.48,0,0,1,0,.68A.49.49,0,0,1,16.29,18.59Z"/><path d="M22.5,30H.5a.48.48,0,0,1-.35-.14A.45.45,0,0,1,0,29.55a.47.47,0,0,1,.15-.35.48.48,0,0,1,.35-.14h22a.48.48,0,0,1,.35.14.47.47,0,0,1,.15.35.45.45,0,0,1-.15.34A.48.48,0,0,1,22.5,30Z"/></g></g></svg>