<svg xmlns="http://www.w3.org/2000/svg" viewBox="0 0 59.52 56.46"><g id="Layer_2" data-name="Layer 2"><g id="Layer_1-2" data-name="Layer 1"><path d="M10.23,48H47.32v8.5H10.23ZM59.36,19.48c-1.39,9.58-11.9,9.76-11.9,9.76l-.19,17.65h-37l-.11-17.43s-8.7-1.58-9.85-7A12.47,12.47,0,0,1,5,9.48c8.31-6.06,15.66,1,15.66,1s0-2.79-5.28-4.56c2.47-4.8,15.22-9.3,22.26-2.28,5.81,5.79,6,10.82,5,14,2.66-3,2.38-8.6-1.15-12.44C51.4,2.57,60.89,8.93,59.36,19.48ZM15.56,33.36a71.72,71.72,0,0,1,.67,11C17.48,44.28,16.81,37,15.56,33.36Zm5.86-8.5s1.75,8.75,1.67,14.5c-.09,3,0,5,0,5h1S25.09,31,21.42,24.86Zm9.48,19.5s-.59-20.42-3.25-25.67c0,0,2.3,16,2.11,25.67Zm9.19-20.42a42.64,42.64,0,0,0-3.4,15.42c0,3,0,5,0,5h1S37.57,31.91,40.09,23.94Zm3.13,11c-1.25,3.15-1.92,9.39-.67,9.46A53.25,53.25,0,0,1,43.22,34.9Z"/></g></g></svg>