<svg xmlns="http://www.w3.org/2000/svg" viewBox="0 0 42.42 35.87"><g id="Layer_2" data-name="Layer 2"><g id="icon"><path d="M39.3,18.4a.19.19,0,0,0,0-.08,3.05,3.05,0,0,0-2-2.22,11.15,11.15,0,0,0-5.5-.35A22.15,22.15,0,0,0,26.56,17c-2.48,1-4.87,3.38-4.3,6.12,0,0,0,0,0,0,.1,1.9.44,4,2.39,4.83a7.49,7.49,0,0,0,6.27-.41,9.35,9.35,0,0,0,2.78-1.82c.9-.9,1.48-2.08,2.42-3a8.29,8.29,0,0,1,2.19-1.27,1.69,1.69,0,0,0,.62-.43C39.56,20.37,39.38,19.28,39.3,18.4ZM24,19.05a9.42,9.42,0,0,1,4.54-2.25A21.73,21.73,0,0,1,34.24,16a8.13,8.13,0,0,1,2.81.43,2.78,2.78,0,0,1,1.84,2h0a1.59,1.59,0,0,1-.18.95c-.6,1.17-2.32,1.46-3.31,2.21-1.23.92-2.07,2.24-3.2,3.27C29.41,27.42,24.61,28.18,23,24l0,0v0A4.39,4.39,0,0,1,24,19.05Zm-.57,3.8s0,0,0,0c.49,2.55,2.89,3.3,5.24,2.86a6.31,6.31,0,0,0,3.25-2,22.33,22.33,0,0,1,3.72-3.35c.69-.46,1.74-.88,1.74-1.89a1.8,1.8,0,0,0-.92-1.33,6.18,6.18,0,0,0-2.9-.34,18.45,18.45,0,0,0-3.91.64c-2.74.68-6.59,1.77-6.23,5.38C23.45,22.83,23.46,22.84,23.46,22.85Zm7.3-5.24c1.22-.29,5.84-1.26,6.14.77.13.87-.74,1.18-1.34,1.56s-1,.69-1.43,1a27.62,27.62,0,0,0-2.73,2.68,5.58,5.58,0,0,1-3.94,1.79,3.29,3.29,0,0,1-3.6-2.67C23.52,19.05,28,18.25,30.76,17.61ZM27,22.84a2.06,2.06,0,0,0,2-1,1,1,0,0,0-.07-1,1.21,1.21,0,0,0-.83-.35h-.06c-.72-.07-1.92.28-2.19,1.05S26.36,22.76,27,22.84Zm-.21-1.67a2.19,2.19,0,0,1,1.27-.29h0a1.11,1.11,0,0,1,.37.07c.52.27.19.83-.09,1.08a1.67,1.67,0,0,1-1.19.41C26.42,22.41,25.84,21.75,26.8,21.17Zm-20-5.74a.43.43,0,0,0,.37-.5.45.45,0,0,0-.37-.37c-1,0-2.75.2-2.58-1.23a5.05,5.05,0,0,1,1.44-2.61c.38-.4-.23-1-.61-.62-.88.92-2.08,2.69-1.78,4.06S5.77,15.47,6.77,15.43ZM8.35,15a.44.44,0,0,0,.13.31.39.39,0,0,0,.3.12A.4.4,0,0,0,9.21,15v0a.42.42,0,0,0-.12-.3.44.44,0,0,0-.31-.13A.45.45,0,0,0,8.35,15ZM10.63,4.33a.39.39,0,0,0,.3-.12.4.4,0,0,0,.13-.31,4,4,0,0,1,.06-.47A.47.47,0,0,0,11,3.12.5.5,0,0,0,10.69,3a.47.47,0,0,0-.3.12.48.48,0,0,0-.13.31,3.55,3.55,0,0,1-.06.47.44.44,0,0,0,.13.31A.39.39,0,0,0,10.63,4.33Zm4.72-.83a2.05,2.05,0,0,1,.43-.26c.5-.24.06-1-.43-.75a3.12,3.12,0,0,0-.62.4C14.32,3.21,14.94,3.82,15.35,3.5ZM20,3.31c.5.24.94-.51.43-.74a6.58,6.58,0,0,1-.67-.4c-.45-.32-.88.43-.43.75A3,3,0,0,0,20,3.31Zm3.06,1.07a1,1,0,0,1,.36-.19.43.43,0,0,0-.23-.83,1.64,1.64,0,0,0-.74.41.43.43,0,1,0,.61.61ZM17.63,6.8c.36.43,1-.18.62-.61L18,5.92c-.41-.37-1,.24-.62.61Zm-5.06-.13A1.42,1.42,0,0,1,13,6.38c.49-.26,0-1-.43-.75a1.89,1.89,0,0,0-.57.44C11.59,6.48,12.19,7.09,12.57,6.67Zm9,.23c.5.25.93-.49.44-.74a.91.91,0,0,1-.43-.37.43.43,0,0,0-.74.43A1.84,1.84,0,0,0,21.59,6.9ZM8.26,6.5a.33.33,0,0,1,0-.14.31.31,0,0,1,.09-.11c.5-.27,0-1.07-.35-.75a1.37,1.37,0,0,0-.35.33,1.28,1.28,0,0,0-.18.44C7.33,6.81,8.17,7,8.26,6.5ZM25.4,6c.43.36,1-.25.62-.62L25.64,5c-.43-.35-1,.26-.62.62A3.41,3.41,0,0,0,25.4,6Zm17,14.93A11.64,11.64,0,0,0,33.67,9.64h0a16.26,16.26,0,0,0-6.48-6.82A20.43,20.43,0,0,0,12.25.52,13.58,13.58,0,0,0,4.66,5.66c-1.67,2-3.57,4.75-3.6,7.52,0,.72-.18,2.33.54,2.81a1.05,1.05,0,0,0,.25.37A.85.85,0,0,0,2,16.5C.91,17.22-.52,18.62.19,19.87a1.7,1.7,0,0,0,.74.56,1.76,1.76,0,0,0,.91.09,2.23,2.23,0,0,0,.75-.22,7.22,7.22,0,0,0,0,1.47c-1.1.75-3.09,2.76-2.41,3.95a1.7,1.7,0,0,0,.74.56,1.57,1.57,0,0,0,.91.09,2.23,2.23,0,0,0,.75-.22A5.39,5.39,0,0,0,3,29.09a2.44,2.44,0,0,0,.14.28,2.37,2.37,0,0,0-2,1.27c-.4,1.06-.09,3.49.87,4.23a3.34,3.34,0,0,0,1.72.41c1.39.17,2.75.36,4.15.4,3.2.08,6.4.17,9.6.18s6.45,0,9.67-.19c1.85-.08,4.56,0,6.2-1.11a3.08,3.08,0,0,0,1.14-2.62h0A11.64,11.64,0,0,0,42.42,20.91ZM2.44,11A16.36,16.36,0,0,1,9.76,2.3,18,18,0,0,1,20,1c4.56.74,9.59,3.47,12,7.48.19.31.35.63.51.95h0a11,11,0,0,0-1.73-.15A11.64,11.64,0,0,0,19.94,16.7h0l-1.78,0c-3.27,0-6.54,0-9.85-.1-1.6,0-4.92.3-6-1.15C1.5,14.28,2,12.11,2.44,11Zm-.16,8.58h0C-.22,19.63,2,17.5,3,17c.28.07.56.1.85.15a5.13,5.13,0,0,0,2.3.25c4,.29,8,.13,12,.17h1.48a11.44,11.44,0,0,0-.14,6.12h0c-.71.05-1.41.09-2.11.1-2.54.07-5.08,0-7.63-.12L6,23.52c-2.16-.08-2.71-1.45-2.53-3.37.77.13.71.74,1.17,1.28C5.92,23,8,21.85,9.18,20.88c.87-.68,1.35-1.1,2.46-.55.37.25.76.49,1.15.7,1,.37,1.58-.07,2.51-.32,2.26-.63,2.24-.25,3.86.57,0-.12,0-.25,0-.37s0-.44,0-.66L18.76,20a3.65,3.65,0,0,0-2.08-.61c-1,.08-1.76.61-2.8.66-1.37.07-1.38-.53-2.53-.85s-1.88.47-2.73,1.1a2,2,0,0,1-2.26.54c-1.68-.31-.89-.21-1.64-1.09a1.51,1.51,0,0,0-.8-.53C3.31,19.05,2.84,19.54,2.28,19.56Zm0,5.88c-2.4.07-.47-1.88.6-2.53a1.92,1.92,0,0,0,.14.36c.84,1,3,1.19,3.3,1.18a123.73,123.73,0,0,0,12.92.17l.46,0h0a12.35,12.35,0,0,0,.94,2.1h0a9,9,0,0,1-1.88-.82,3.58,3.58,0,0,0-2.08-.62c-1,.08-1.76.62-2.8.66-1.37.07-1.38-.52-2.53-.84s-1.88.46-2.73,1.09a2,2,0,0,1-2.26.54c-1.68-.31-.89-.21-1.64-1.09a1.62,1.62,0,0,0-.8-.53C3.35,24.93,2.88,25.42,2.32,25.44Zm19,2.28a10.93,10.93,0,0,0,1.38,1.58h0c-1.79.11-3.57.28-5.36.33-2.54.06-5.08-.05-7.63-.13L6,29.37C3.8,29.29,3.25,27.92,3.43,26c.77.13.71.74,1.17,1.29,1.32,1.58,3.35.41,4.58-.56.87-.68,1.35-1.09,2.46-.55.37.25.76.49,1.15.71,1,.36,1.58-.08,2.51-.33,2.3-.65,2.23-.23,3.94.61a4.8,4.8,0,0,0,1.36.48,3.84,3.84,0,0,0,.75.09ZM33.6,32.19a2.82,2.82,0,0,1-.67,1.62c-.94.79-2.94.83-4.09.91-3.77.26-7.57.29-11.35.28-3.49,0-7,0-10.49-.22-1.48-.08-4.31.06-4.93-1.53-.66-1.85.36-3,2.14-3.12a9.53,9.53,0,0,0,2.13.18c4.31.15,8.61.45,12.92.17,1.51-.09,3-.22,4.52-.29h0a11.6,11.6,0,0,0,7,2.36,11.35,11.35,0,0,0,2.82-.36Zm-2.82-.72A10.56,10.56,0,1,1,41.34,20.91,10.56,10.56,0,0,1,30.78,31.47Z"/></g></g></svg>