<svg xmlns="http://www.w3.org/2000/svg" xmlns:xlink="http://www.w3.org/1999/xlink" viewBox="0 0 32.26 29.98"><defs><style>.cls-1{fill:none;}.cls-2{clip-path:url(#clip-path);}.cls-3{fill:#333;}</style><clipPath id="clip-path" transform="translate(0 0)"><rect class="cls-1" width="32.24" height="30"/></clipPath></defs><g id="Layer_2" data-name="Layer 2"><g id="Layer_1-2" data-name="Layer 1"><g class="cls-2"><path class="cls-3" d="M32.22,13.47c-.13-4-.76-7.12-3.65-10-2.18-2.16-4.15-4-7.34-3.34A16.57,16.57,0,0,1,15,.56a14,14,0,0,0-5-.22C6.76,1,4.94,4,3.3,6.67A24.81,24.81,0,0,0,.24,15C-1,21.57,2.68,28.45,9.48,29.66h.11c3.69.48,6.94.6,10.44-.85,3.12-1.3,7.15-3.13,9.32-5.83a18.44,18.44,0,0,0,2.2-4.53A11.71,11.71,0,0,0,32.22,13.47Zm-1,3.37a22.83,22.83,0,0,1-1.75,4.33c-1.5,3.17-5.8,5.13-8.89,6.52-3.66,1.66-7,1.68-10.9,1.19C3.82,27.83.21,22.2.84,16.42a27,27,0,0,1,1.58-6c1-2.84,3-6.6,5.6-8.31,3.13-2.11,6.6-.25,10-.45a16.25,16.25,0,0,0,2.86-.56A5.14,5.14,0,0,1,26,2.33,22.11,22.11,0,0,1,29.31,5.6a10.58,10.58,0,0,1,2,6.15,18.09,18.09,0,0,1-.06,5.09Z" transform="translate(0 0)"/><path class="cls-3" d="M16.16,6.51c-3.61-1-7.43-.15-8.71,3.83a7.11,7.11,0,0,0,4.1,8.71C19.41,22.12,23.73,9.68,16.16,6.51ZM11.57,18.15a6.28,6.28,0,0,1-3.32-7.57C9.38,7,12.81,6.5,16,7.33,22.64,10.12,18.39,21.26,11.57,18.15Z" transform="translate(0 0)"/><path class="cls-3" d="M10.5,9.92C8.88,10.93,9,13,9.73,14.53c.24.48.95.06.71-.42-.55-1.11-.74-2.71.48-3.47C11.37,10.36,11,9.64,10.5,9.92Z" transform="translate(0 0)"/><path class="cls-3" d="M11.91,8.84a.41.41,0,0,0-.41.41.42.42,0,0,0,.12.3.4.4,0,0,0,.29.12.42.42,0,0,0,.3-.12.47.47,0,0,0,.12-.3A.45.45,0,0,0,12.21,9a.42.42,0,0,0-.3-.12Z" transform="translate(0 0)"/></g></g></g></svg>