<svg xmlns="http://www.w3.org/2000/svg" xmlns:xlink="http://www.w3.org/1999/xlink" viewBox="0 0 27.91 30"><defs><style>.cls-1{fill:none;}.cls-2{clip-path:url(#clip-path);}.cls-3{fill:#333;}</style><clipPath id="clip-path" transform="translate(0 0)"><rect class="cls-1" width="27.91" height="30"/></clipPath></defs><g id="Layer_2" data-name="Layer 2"><g id="Layer_1-2" data-name="Layer 1"><g class="cls-2"><path class="cls-3" d="M26.31,6a39.33,39.33,0,0,0-7.07-3.85A19.1,19.1,0,0,0,13.31.31C12.1.17,8.9-.36,7.83.42,7,1.05,6.57,2.7,6.05,3.61c-1.14,2-2,4-2.91,6.14S1.2,13.78.4,15.87C-.35,17.78.17,20,.27,22.06a.38.38,0,0,0,.09.25.38.38,0,0,0,.22.15c1.75.38,1.27,2.78-.06,3.36A.31.31,0,0,0,.37,26a.37.37,0,0,0-.06.21c.12,1.72-.24,4.31,2.23,3.74,2.09-.47,4.13-1.37,6.23-1.89,1.64-.41,3.28-.85,4.93-1.29,2.89-.75,5.78-1.45,8.64-2.32,1.68-.52,4.87-.76,5.27-2.8a.57.57,0,0,0,0-.18c0-2.27-.06-4.53.07-6.79a.38.38,0,0,0-.09-.25.46.46,0,0,0-.22-.15c-2.11-.39-1.58-2.83.16-3.25a.48.48,0,0,0,.22-.15.54.54,0,0,0,.09-.25C27.91,8.29,28.21,7.48,26.31,6ZM7.39,2.74c.21-.41.47-1.21.85-1.46A3,3,0,0,1,9.79,1a17.36,17.36,0,0,1,6.63.84,50.6,50.6,0,0,1,6.72,3.23,9.74,9.74,0,0,1,3.62,2.52h-.1c-2.53,1.12-5,2.33-7.56,3.42-1.37-1.94-5.05-1.26-6,.73-.12.25-.15.76-.31,1s0,0-.27.16a20.81,20.81,0,0,1-3.62,1.3c-2.5,1-5.07,1.74-7.64,2.47a20.75,20.75,0,0,1,1.48-4.06C4.28,9.29,5.73,6,7.39,2.74Zm11.05,9A2.92,2.92,0,0,1,16.12,14,2.7,2.7,0,0,1,13.56,13c.3-2,3.76-3.15,4.88-1.27Zm7-.4A2.32,2.32,0,0,0,25,12.74a2.25,2.25,0,0,0,.53,1.42c.31.38.71.43,1.05.73a1.24,1.24,0,0,0,.26.19.65.65,0,0,0,0,.39c.18,1.93-.05,4,0,6-.14,1.29-3.71,1.87-4.68,2.16-1.25.39-2.5.77-3.77,1.1Q13.51,26,8.59,27.21c-1,.24-1.9.45-2.84.73s-2.19,1.09-3,1c-1.32,0-1.3-1.08-1.45-2,0,0,0-.3-.05-.51a1.29,1.29,0,0,0,.16-.17c1-1.21,2.12-3,.38-4.29-.15-.11-.46-.17-.6-.31-.25-.3,0,.05,0-.12A9.69,9.69,0,0,1,1,19.25a9,9,0,0,1,.05-1.64,108.63,108.63,0,0,0,12-4,3.45,3.45,0,0,0,3.77,1.14,3.81,3.81,0,0,0,2.49-2.85c2.57-1.09,5.12-2.36,7.74-3.5a2.56,2.56,0,0,1,0,1.55,1.89,1.89,0,0,0-.1.41l-.41.16A5.33,5.33,0,0,0,25.49,11.29Z" transform="translate(0 0)"/><path class="cls-3" d="M10.44,6.83A7.12,7.12,0,0,0,12.85,6c.52-.26,1.27-.6,1.42-1.23C14.6,3.38,12.81,3,11.83,2.88c-1.31-.06-3.12.29-3.62,1.71S9.15,6.94,10.44,6.83ZM9.61,4.17a3.78,3.78,0,0,1,2.23-.46c.73.06,2.21.38,1.08,1.33a5.21,5.21,0,0,1-2.11.86,1.58,1.58,0,0,1-.68.09,1.55,1.55,0,0,1-.66-.18C8.8,5.37,9,4.58,9.61,4.17Z" transform="translate(0 0)"/><path class="cls-3" d="M6.93,12.66a4.65,4.65,0,0,0,1.7-.55c.4-.19.92-.44,1-.92.23-1-1-1.38-1.8-1.45C6.9,9.7,5.63,10,5.3,11S6,12.75,6.93,12.66Zm-.48-1.81a2.44,2.44,0,0,1,1.43-.29c.38,0,1.2.14.65.61a3.28,3.28,0,0,1-1.38.56,1,1,0,0,1-.79,0c-.36-.2-.22-.61.09-.82Z" transform="translate(0 0)"/><path class="cls-3" d="M19.15,8.8c.91-.08,3-.65,3.21-1.71s-1.21-1.58-2.07-1.66c-1.1,0-2.61.25-3,1.45S18,8.9,19.15,8.8Zm-.61-2.16a2.84,2.84,0,0,1,1.78-.36c.53,0,1.65.24.84.93a4.25,4.25,0,0,1-1.69.7,1.44,1.44,0,0,1-1-.06c-.53-.34-.35-.92.08-1.21Z" transform="translate(0 0)"/><path class="cls-3" d="M20.42,17.5c-1.36.13-2.9,1.1-2.93,2.6a2.86,2.86,0,0,0,2.79,2.69,2.52,2.52,0,0,0,2.6-2.25,3.12,3.12,0,0,0-.1-1.18,3.2,3.2,0,0,0-.55-1.05,2.28,2.28,0,0,0-.81-.63A2.14,2.14,0,0,0,20.42,17.5Zm-.22,4.43a2,2,0,0,1-1.89-1.81c0-1,1.21-1.68,2.09-1.76C22.7,18.48,22.45,22.2,20.2,21.93Z" transform="translate(0 0)"/><path class="cls-3" d="M8.56,17.81H8.45c-1.21.3-2.41,1.31-2,2.67.29,1.07,1.5,2.21,2.68,1.86a2.79,2.79,0,0,0,1.68-2.87A2.07,2.07,0,0,0,10,18.21a2,2,0,0,0-1.43-.4Zm.61,3.53c-.68.56-1.51-.13-1.81-.78-.48-1,.44-1.67,1.31-1.91a1.17,1.17,0,0,1,.71.17,1.19,1.19,0,0,1,.49.55,1.88,1.88,0,0,1,0,1.1,1.83,1.83,0,0,1-.68.87Z" transform="translate(0 0)"/></g></g></g></svg>