<svg xmlns="http://www.w3.org/2000/svg" viewBox="0 0 28.45 30"><defs><style>.cls-1{fill:#231f20;}</style></defs><g id="Layer_2" data-name="Layer 2"><g id="Layer_1-2" data-name="Layer 1"><path class="cls-1" d="M5.67,5.06V4.15a.59.59,0,0,0,0-.23.63.63,0,0,0-.13-.2.69.69,0,0,0-.2-.13.59.59,0,0,0-.23,0H2.25a.56.56,0,0,0-.42.18.59.59,0,0,0-.17.42v.91H0L0,30l15.47-.06L15.47,5ZM.53,29.52l0-24,14.5,0,0,23.94Z"/><path class="cls-1" d="M28.4,8.92H24.76V4.55L28.42.88,27.53,0l-4,4V8.91H18.7l0,21h9.71ZM19.21,29.49l0-20.07h4.33v3.92H19.89V28.13h7.39V13.35H24.76V9.42h3.16l0,20.07Zm5.4-10.87a.82.82,0,0,1,.12-.43.87.87,0,0,1,.35-.28.79.79,0,0,1,.83.16.79.79,0,0,1,.21.39.77.77,0,0,1,0,.45.78.78,0,0,1-.28.34.76.76,0,0,1-1-.09.76.76,0,0,1-.23-.54Zm.49,6.64a.48.48,0,0,1-.07.24.47.47,0,0,1-.2.17.45.45,0,0,1-.6-.32.54.54,0,0,1,0-.25.45.45,0,0,1,.16-.2.4.4,0,0,1,.24-.07A.43.43,0,0,1,25,25,.44.44,0,0,1,25.1,25.26Zm-2.62-3.65a.76.76,0,0,1,.42.12A.76.76,0,0,1,23,22.91a.79.79,0,0,1-.39.21.77.77,0,0,1-.45,0,.78.78,0,0,1-.34-.28.75.75,0,0,1-.13-.43.72.72,0,0,1,.06-.29.67.67,0,0,1,.16-.25.85.85,0,0,1,.25-.17A.93.93,0,0,1,22.48,21.61Zm-.44-5a.4.4,0,0,1,.13-.31.48.48,0,0,1,.3-.13.51.51,0,0,1,.17,0,.71.71,0,0,1,.14.1.42.42,0,0,1,.09.14.33.33,0,0,1,0,.17.55.55,0,0,1,0,.18.46.46,0,0,1-.09.15.33.33,0,0,1-.15.11.42.42,0,0,1-.36,0,.36.36,0,0,1-.14-.11.46.46,0,0,1-.09-.15A.37.37,0,0,1,22,16.62Z"/><path class="cls-1" d="M8.64,15.87c-1.26,1.08-1.1,3.47-1.1,3.47,4.11-1.8,3.59-4.68,3.59-4.68A5.33,5.33,0,0,0,8.64,15.87Z"/><path class="cls-1" d="M10.37,20c-1.09-.68-2.08-.08-2.83,0s-1.73-.66-2.83,0c-1.6,1,.49,6.69,2.39,6.69H8C9.9,26.64,12,20.94,10.37,20Z"/><path class="cls-1" d="M3.36,8.41v3.21a.35.35,0,0,1,0,.14.26.26,0,0,1-.07.11A.5.5,0,0,1,3,12H2.69l-.09.58a1.26,1.26,0,0,0,.39,0,.79.79,0,0,0,.37-.07.85.85,0,0,0,.32-.21A.87.87,0,0,0,3.9,12,1,1,0,0,0,4,11.62V8.42Z"/><path class="cls-1" d="M4.83,12.3a1,1,0,0,0,.32.22,1.07,1.07,0,0,0,.76,0,1,1,0,0,0,.32-.22A.87.87,0,0,0,6.45,12a1,1,0,0,0,.07-.38V8.39H5.87v3.2a.35.35,0,0,1,0,.14.27.27,0,0,1-.19.19.32.32,0,0,1-.14,0,.35.35,0,0,1-.14,0,.41.41,0,0,1-.11-.07.42.42,0,0,1-.08-.12.35.35,0,0,1,0-.14V8.39H4.54V11.6a1,1,0,0,0,.07.38A1,1,0,0,0,4.83,12.3Z"/><path class="cls-1" d="M7.68,8.41H7.06v4.14h.63Z"/><path class="cls-1" d="M8.55,12.3a1.05,1.05,0,0,0,.5.29,1,1,0,0,0,.58-.06.91.91,0,0,0,.45-.37,1,1,0,0,0,.16-.56V11H9.59v.58a.31.31,0,0,1,0,.13l-.08.12a.38.38,0,0,1-.25.09A.34.34,0,0,1,9,11.85a.42.42,0,0,1-.08-.12.31.31,0,0,1,0-.13V9.33a.32.32,0,0,1,0-.14A.25.25,0,0,1,9,9.07L9.1,9a.35.35,0,0,1,.14,0,.32.32,0,0,1,.14,0,.5.5,0,0,1,.12.08.36.36,0,0,1,.08.12.32.32,0,0,1,0,.14v.49h.61V9.33a1,1,0,0,0-.29-.7,1,1,0,0,0-1.38,0,1,1,0,0,0-.29.7v2.26a1,1,0,0,0,.07.38A.83.83,0,0,0,8.55,12.3Z"/><path class="cls-1" d="M11.37,11.9V10.77h.85v-.63h-.85V9h1.16V8.38H10.75v4.15h1.78V11.9Z"/></g></g></svg>