<svg xmlns="http://www.w3.org/2000/svg" viewBox="0 0 28.33 30"><defs><style>.cls-1{fill:#fff;}</style></defs><g id="Layer_2" data-name="Layer 2"><g id="Layer_1-2" data-name="Layer 1"><path d="M6.84,30a9.57,9.57,0,0,1-1-.42,3,3,0,0,1-1.46-2Q2.7,21.2,1.07,14.83A4.68,4.68,0,0,1,1,14a1.2,1.2,0,0,0-.08-.42A11.41,11.41,0,0,1,0,9.38,6.49,6.49,0,0,1,3.13,3.67a.45.45,0,0,1,.65.08.46.46,0,0,1-.17.66A6.76,6.76,0,0,0,1.9,6a5.6,5.6,0,0,0-1,3.56,10.27,10.27,0,0,0,.75,3.32c.29-.07.38-.21.29-.52A5.69,5.69,0,0,1,4,6.4,6.91,6.91,0,0,1,7.42,5a.39.39,0,0,0,.27-.19,6.08,6.08,0,0,1,1-2.11l.05-.14c-.7.17-1.36.31-2,.5-.5.14-1,.34-1.46.51s-.61.07-.72-.2,0-.48.38-.62A19.52,19.52,0,0,1,9.47,1.53a1.52,1.52,0,0,0,.59-.23,7.09,7.09,0,0,1,8.2,0,2.86,2.86,0,0,0,1.31.33A14.24,14.24,0,0,1,25.5,3.88a6.42,6.42,0,0,1,2.83,5.61,11.43,11.43,0,0,1-.92,4,3.09,3.09,0,0,0-.08.62,4.41,4.41,0,0,1-.08.72c-1.07,4.21-2.16,8.42-3.23,12.64A3.08,3.08,0,0,1,21.54,30l-.11.05Zm7.29-4h9.08c.22,0,.3-.05.35-.27q.81-3.18,1.63-6.36l1.2-4.67A.85.85,0,0,0,26,13.58a2.11,2.11,0,0,0-.27-.18c-.56-.32-1.1-.68-1.68-1-1.26-.59-2.54-1.14-3.82-1.69-.33-.15-.49-.06-.62.29,0,.07-.05.15-.08.22a4.24,4.24,0,0,1-1.37,1.93A6,6,0,0,1,13,14.5,5.11,5.11,0,0,1,8.7,11c-.11-.33-.28-.41-.62-.28-.79.32-1.6.61-2.37,1-1.13.56-2.24,1.18-3.34,1.8a.84.84,0,0,0-.44,1.09c.94,3.68,1.89,7.36,2.82,11,.06.24.15.31.39.31Zm12.54-13a9.65,9.65,0,0,0,.75-3.3,5.53,5.53,0,0,0-2.64-5.15,12.16,12.16,0,0,0-4-1.66c-.38-.1-.76-.17-1.14-.25a7.86,7.86,0,0,1,1,2.24c0,.08.18.17.28.18a7.08,7.08,0,0,1,2.68.93c.28.16.36.4.22.63s-.39.28-.71.1a6.18,6.18,0,0,0-5.35-.42,5.31,5.31,0,0,0-2.58,1.93l1.94.64a.33.33,0,0,0,.25-.07A4.16,4.16,0,0,1,21.28,8a3.17,3.17,0,0,1,2.41,3.1.22.22,0,0,0,.09.17l1.74.91a4.41,4.41,0,0,0,.1-2.19,5.05,5.05,0,0,0-1.13-2.25.44.44,0,0,1,0-.67.43.43,0,0,1,.64.1,5.51,5.51,0,0,1,1.24,5.18C26.33,12.68,26.38,12.82,26.67,12.92ZM5.1,26.85a2.29,2.29,0,0,0,2.44,2.27H20.9a2.25,2.25,0,0,0,2.31-2.27ZM13.19,8.13c-.34-.33-.65-.69-1-1a6.11,6.11,0,0,0-7.11-.41,4.83,4.83,0,0,0-2.44,4.35,9.17,9.17,0,0,0,.14,1.13c.62-.32,1.18-.6,1.73-.9a.32.32,0,0,0,.13-.24A2.9,2.9,0,0,1,5.76,8.71a4.2,4.2,0,0,1,5.13,0c.09.06.22.13.3.1C11.84,8.59,12.48,8.37,13.19,8.13Zm6.54-3.25c-.45-2.27-3.1-4.11-5.74-4a5.52,5.52,0,0,0-5.38,4l2,.35a3.63,3.63,0,0,1,3.6-2.29,3.61,3.61,0,0,1,3.6,2.28Zm-2.3,7.79a3.91,3.91,0,0,0,1.16-1.4.3.3,0,0,0-.07-.42A6,6,0,0,0,13.2,9.12a5.68,5.68,0,0,0-3.42,1.76c0,.06-.12.18-.1.24a3.63,3.63,0,0,0,1.22,1.55A4.12,4.12,0,0,1,17.43,12.67ZM14.12,8a17,17,0,0,1,1.27-1.38c.46-.41,1-.72,1.51-1.09a2.84,2.84,0,0,0-3.1-1.73,2.58,2.58,0,0,0-2.37,1.81A6.36,6.36,0,0,1,14.12,8Zm2.56,5.14A3,3,0,0,0,14,12a2.86,2.86,0,0,0-2.32,1.2A5.78,5.78,0,0,0,16.68,13.15ZM5.55,10.84c.66-.28,1.29-.52,1.91-.8a1.44,1.44,0,0,1,1.75.12l1-.86a3.33,3.33,0,0,0-3.78,0A2,2,0,0,0,5.55,10.84Zm17.24,0a2.12,2.12,0,0,0-1.31-1.77,3.33,3.33,0,0,0-3.41.24c.21.15.38.27.54.41s.33.29.49.44A1.33,1.33,0,0,1,20.68,10Z"/><path class="cls-1" d="M22.79,10.84,20.68,10a1.33,1.33,0,0,0-1.58.19c-.16-.15-.32-.3-.49-.44s-.33-.26-.54-.41a3.33,3.33,0,0,1,3.41-.24A2.12,2.12,0,0,1,22.79,10.84Z"/><path d="M14.17,21.85a2.57,2.57,0,0,1-1.81-.76c-.22-.23-.25-.48-.06-.67a.43.43,0,0,1,.65,0,1.71,1.71,0,0,0,1,.5,1.62,1.62,0,0,0,1.27-.38l.15-.14a.43.43,0,0,1,.65,0,.42.42,0,0,1,0,.62A2.5,2.5,0,0,1,14.17,21.85Z"/><path d="M18.84,20.23c0-.16,0-.31,0-.47a.39.39,0,0,1,.39-.39.37.37,0,0,1,.44.3,6.75,6.75,0,0,1,0,1.19c0,.22-.22.31-.44.29a.38.38,0,0,1-.38-.37,5,5,0,0,1,0-.55Z"/><path d="M9.48,20.28c0,.16,0,.33,0,.49a.38.38,0,0,1-.37.38.37.37,0,0,1-.46-.31,6.41,6.41,0,0,1,0-1.16.37.37,0,0,1,.43-.31.39.39,0,0,1,.41.38C9.49,19.92,9.48,20.1,9.48,20.28Z"/></g></g></svg>