<svg xmlns="http://www.w3.org/2000/svg" xmlns:xlink="http://www.w3.org/1999/xlink" viewBox="0 0 26.78 29.96"><defs><style>.cls-1{fill:none;}.cls-2{clip-path:url(#clip-path);}.cls-3{fill:#333;}</style><clipPath id="clip-path" transform="translate(-0.01 0)"><rect class="cls-1" width="26.79" height="30"/></clipPath></defs><g id="Layer_2" data-name="Layer 2"><g id="Layer_1-2" data-name="Layer 1"><g class="cls-2"><path class="cls-3" d="M26.29,4.33c-.52-.28-1.82-.9-2.43-.63a.67.67,0,0,0-.3.25c-.28-.58-1-.52-1.74-.57l-.33,0c.18-.59.35-1.37-.35-1.62a8.82,8.82,0,0,0-1.7-.16,13.1,13.1,0,0,0-1.77-.31.39.39,0,0,0-.18,0,.4.4,0,0,0-.13.13,2.88,2.88,0,0,0-.2,1,5.24,5.24,0,0,0-1-.11C16.05,1.57,16,0,15,0a10.79,10.79,0,0,0-3.61.49.39.39,0,0,0-.19.12.58.58,0,0,0-.08.22,7.45,7.45,0,0,0,.09,1,12.35,12.35,0,0,0-1.46.34l-.67.09a1.08,1.08,0,0,0,0-.44A1.18,1.18,0,0,0,9,1.37a.89.89,0,0,0-.52-.14l-1.27,0c-.51,0-1.33-.24-1.72.22S5.16,3,5.17,3.6L5,3.65a.26.26,0,0,0-.16.09.34.34,0,0,0-.1.16A18.8,18.8,0,0,0,4.6,6.39c-.16-.63-.32-1.27-.48-1.89-.32-1.21-.87-1-2-.82S0,3.79.18,5.07a27.68,27.68,0,0,0,1.11,5H.58c-.66.35-.56.74-.57,1.44,0,1.43.15,2.85.33,4.27A74.21,74.21,0,0,0,1.55,24c.34,1.61.52,4.91,2.37,5.53a16.66,16.66,0,0,0,3.7.33,42.41,42.41,0,0,0,4.51,0c2.48-.08,5,.14,7.44,0,1.62-.1,3.15-.36,3.92-1.93,1.12-2.27,1.41-5.28,1.74-7.73.43-3.09.63-6.23.84-9.36a.39.39,0,0,0-.1-.25.36.36,0,0,0-.26-.11h-.37c.46-1.44.88-2.89,1.23-4.36C26.75,5.36,27.07,4.75,26.29,4.33Zm-3.36.06a4.64,4.64,0,0,1,0,1.83v0a.38.38,0,0,0,0,.15v0l0,3.92-2.2-.11c0-1.19,0-2.38,0-3.56a14.47,14.47,0,0,1,.08-1.86c.11-.86.18-.82,1-.74.46,0,1,0,1.12.28Zm-3,5.84H19.6c.13-.45.24-.9.34-1.35,0,.43,0,.89,0,1.34Zm-.15-7.9c.28,0,.89,0,1,.2s0,.58-.1.81c-.37.08-.57.34-.64,1,0,.43-.06.87-.08,1.3v0c-.49,1.46-.69,3-1.13,4.46l-1.54-.05a46.71,46.71,0,0,0,.76-6.57,1,1,0,0,0-.05-.43,1,1,0,0,0-.21-.39h0A4.6,4.6,0,0,1,17.92,2c.62,0,1.28.25,1.89.32ZM17.15,5.19A41,41,0,0,1,16.63,10v.08L14.4,10q.3-1.54.63-3.09a12,12,0,0,0,.57-2.82.67.67,0,0,0-.1-.34.69.69,0,0,0-.25-.26h0c0-.65,1.37-.65,1.78-.33s.16,1.47.12,2ZM12.06,6.5c.07-.49.13-1,.2-1.46a3.13,3.13,0,0,1,.14-1c.13-.2.07,0,.34-.08a4.9,4.9,0,0,1,1.48.14c.81.27.44,1,.31,1.69C14.24,7.15,14,8.55,13.67,10V10l-2.29,0c.26-1.15.49-2.31.68-3.48ZM15,.72a6.06,6.06,0,0,1,.43,1.55l-.48,0a.33.33,0,0,0-.21.07.35.35,0,0,0-.13.19,6.12,6.12,0,0,0-.1.86c-.38,0-.79,0-1.11,0a5.45,5.45,0,0,0-1.07-.08,2.53,2.53,0,0,0-.3-1.08.17.17,0,0,0,0-.1,5,5,0,0,1-.12-.95A8.3,8.3,0,0,1,13.85.85,9.51,9.51,0,0,1,15,.72Zm-3.32,3a.36.36,0,0,0,0,.09,1.21,1.21,0,0,0-.08.25c-.43,1.94-.56,4-1,5.89V10H9.82c-.15-1.76-.37-3.5-.65-5.24a5.81,5.81,0,0,1-.23-1.54c.1-.28.41-.27.78-.34,1.14-.21,1.75-.49,2,.82ZM6,2.2c0-.39.15-.31.46-.32a4.62,4.62,0,0,1,.77,0C7.58,1.91,8,2,8.4,2V2c0,.21-.05.43-.06.64h0a3.2,3.2,0,0,0,.07,1.71c.3,1.86.56,3.72.72,5.6H7.77c.05-1,.09-2.07.1-3.1A7.72,7.72,0,0,0,7.8,4.14c-.24-.56-1.12-.68-1.89-.64A9.57,9.57,0,0,1,6,2.19ZM5.23,8.58c.09-.84.09-1.68.1-2.52S5.17,4,6.39,4.31c.66.19.66.38.76,1.06a9.27,9.27,0,0,1,0,1.49c0,1-.05,2.06-.11,3.09H5.5c-.11-.42-.21-.84-.31-1.26a.42.42,0,0,0,0-.12Zm-4-1.73A7.48,7.48,0,0,1,1,5.45c0-1,.51-1,1.32-1.08,1.13,0,1.17.41,1.39,1.27L4,7.07,4.75,10c-.9,0-1.8,0-2.7.06a29.1,29.1,0,0,1-.84-3.21Zm23.67,10c-.31,3.34-.51,7.46-2,10.57-1.22,2.63-5.4,1.7-7.78,1.7A79.92,79.92,0,0,1,6,29.07c-1-.12-2,0-2.65-1a8.25,8.25,0,0,1-.67-2.38c-.39-1.54-.69-3.09-.94-4.64-.29-1.73-.52-3.48-.66-5.23-.07-.68-.79-4.5-.17-5q10-.35,20,.17c.92,0,1.83.09,2.74.15,1.24.07,1.55-.14,1.66,1.1a25.25,25.25,0,0,1-.37,4.66ZM25.33,8c-.23.83-.48,1.64-.73,2.46l-1-.06V7.19a8.78,8.78,0,0,1,0-1,3.73,3.73,0,0,1,.41-1.59c.25-.24.79,0,1.07.15.51.24.77.4.76,1A10.62,10.62,0,0,1,25.33,8Z" transform="translate(-0.01 0)"/><path class="cls-3" d="M13.13,14.15c-1.83.08-3.72,0-5.25,1.21a5.67,5.67,0,0,0-1.55,1.92,5.59,5.59,0,0,0-.58,2.41c0,4.57,6,4.71,9.25,4.64,1.74,0,3.49-.35,4.64-1.77A5.85,5.85,0,0,0,21,18.2C20.29,14.92,15.9,14.06,13.13,14.15Zm6.38,7.31c-1,1.73-2.65,2.11-4.51,2.15-2.76.06-7.5.24-8.34-3.14a4.41,4.41,0,0,1,.17-2.54,4.32,4.32,0,0,1,1.54-2c1.4-1,3.1-1,4.76-1a7.89,7.89,0,0,1,6.09,1.89C20.64,18.09,20.4,19.88,19.51,21.46Z" transform="translate(-0.01 0)"/><path class="cls-3" d="M8.44,18.66c.05-.46-.67-.45-.73,0a3.92,3.92,0,0,0,0,1.67,3.73,3.73,0,0,0,.74,1.49c.3.35.81-.16.51-.51a3.36,3.36,0,0,1-.58-1.26,3.11,3.11,0,0,1,0-1.39Z" transform="translate(-0.01 0)"/><path class="cls-3" d="M8.42,17.65a.36.36,0,0,0,.26-.11.4.4,0,0,0,.1-.26.39.39,0,0,0-.1-.25.36.36,0,0,0-.26-.11.33.33,0,0,0-.25.11.36.36,0,0,0-.11.25.36.36,0,0,0,.11.26.33.33,0,0,0,.25.11Z" transform="translate(-0.01 0)"/></g></g></g></svg>