<svg xmlns="http://www.w3.org/2000/svg" viewBox="0 0 29.52 30"><defs><style>.cls-1{fill:#333;}</style></defs><g id="Layer_2" data-name="Layer 2"><g id="Layer_1-2" data-name="Layer 1"><path class="cls-1" d="M28.68,1.28l-.07-.05A6.26,6.26,0,0,0,24.94.74,7.28,7.28,0,0,0,19.88.61,5.51,5.51,0,0,0,17.56,0a5.62,5.62,0,0,0-2.36.4.31.31,0,0,0-.13,0A.31.31,0,0,0,15,.53a.33.33,0,0,0-.11.21,42.16,42.16,0,0,1-3.76,6A72.77,72.77,0,0,0,7,14,145.26,145.26,0,0,0,0,28.13a.31.31,0,0,0,0,.13.59.59,0,0,0,0,.13.36.36,0,0,0,.07.1.25.25,0,0,0,.1.08v0a5.82,5.82,0,0,0,4.21.76h0a5.78,5.78,0,0,0,2,.47c.66,0,1.32,0,2,0a20.53,20.53,0,0,0,2.93.13,93.06,93.06,0,0,0,11.15-1.52c1.62-.32,3.28-.67,4.88-1.05.67-.16.86-.2,1.11-.84a6.84,6.84,0,0,0,0-2.07c0-1,.12-2,.21-3,.17-1.76.31-3.47.36-5.22.08-3.54.21-7.08.32-10.62C29.46,5,29.88,1.45,28.68,1.28ZM.94,28.08c2-4.94,4.56-9.59,7-14.29a68.51,68.51,0,0,1,4-7,40.78,40.78,0,0,0,3.56-5.69,4.73,4.73,0,0,1,3.83.13c-.21.42-.42.84-.65,1.25a2,2,0,0,0-1.09-.84,2,2,0,0,0-1.37.1,1.36,1.36,0,0,0-.78.51c-.45.65,0,1.42-.58,2.14a6.8,6.8,0,0,1-1.19,1c-1.35,1-.51,2.52-1.59,3.75-.59.65-.74.59-1,1.46A2,2,0,0,1,10.78,12a6.43,6.43,0,0,1-1,.69c-.14.14-.37.18-.49.36-.41.58-.15,1.4-.32,2-.41,1.57-1.48,1.26-2.16,2.36-.53.84-.07,1.81-.74,2.54-.51.58-1.38.71-1.83,1.37-.59.83-.18,1.83-.51,2.75S2.39,25.5,2.23,26.46C2,27.71,3.47,28.05,4.53,28.1l-.18.43H4.24A5.16,5.16,0,0,1,.94,28.08Zm3.91-.77c-.74,0-1,0-1.24-.72s0-.67.45-1.17a2.46,2.46,0,0,0,.68-1.29c.24-1.24-.26-2.09,1-2.92A4.41,4.41,0,0,0,7,20.29a3.29,3.29,0,0,0,.34-.85,3.42,3.42,0,0,0,0-.64l1.49-1.66c.13-.13.4-.19.51-.34.73-1,.12-2.5.9-3.38.43-.47,1.09-.58,1.45-1.16.26-.41.14-.75.27-1.17.44-1.39,1.5-1.66,1.67-3.18.1-.94.08-1.41.84-2.07A7.9,7.9,0,0,0,15.79,4.7a1.9,1.9,0,0,0,.34-1c.1-.55-.09-.84.38-1.17A1.13,1.13,0,0,1,17,2.37a1.21,1.21,0,0,1,.53.09,1.16,1.16,0,0,1,.44.32,1.21,1.21,0,0,1,.24.48v0C17.44,4.57,16.55,5.79,15.71,7a81.65,81.65,0,0,0-4.18,7.34C9.19,18.65,6.79,22.85,4.85,27.31ZM6.66,29a7.82,7.82,0,0,1-1.07-.08,2.15,2.15,0,0,1-.48-.18,153.35,153.35,0,0,1,7.47-14.61,79.31,79.31,0,0,1,4-7,39,39,0,0,0,3.61-5.8,7,7,0,0,1,4.09,0c-.27.55-.56,1.09-.87,1.61a2,2,0,0,0-2.66-.85c-.39.25-.37.41-.53.88-.29.79-.24,1.3-.93,1.89-.33.28-.75.46-1,.76a1.68,1.68,0,0,0-.36.48,1.75,1.75,0,0,0-.14.59c-.1.59.11,1.36-.18,1.89s-.77.53-1.05.85c-.72.81-.2,1.7-.8,2.55-.45.63-1.27.65-1.62,1.33-.7,1.33.31,1.92-1.17,3.22-.66.59-1.24.62-1.46,1.63-.08.34.07.78,0,1.07-.23.77-.73.91-1.33,1.32A2.9,2.9,0,0,0,9,21.79a4.86,4.86,0,0,0-.08,1.32,2.54,2.54,0,0,1-.35,1.23,2.59,2.59,0,0,1-.92.91,2.35,2.35,0,0,0-1.09,1.38c-.27,1.4.86,1.8,2,1.76-.09.19-.18.39-.26.58A14.13,14.13,0,0,1,6.66,29Zm2.19-1.44h0c-.72.08-.59.2-.68-.78s-.06-.79.58-1.28a2.39,2.39,0,0,0,.89-1c.33-.74,0-1.56.26-2.33.34-.92,1-1,1.68-1.58a1.86,1.86,0,0,0,.65-.82,5.4,5.4,0,0,0,.09-.58,5.06,5.06,0,0,1,1.5-2.17c1-.95.78-1.34,1-2.66s1.56-1.53,2.08-2.73c.19-.44,0-.71.32-1.24s.51-.47.81-.95a2.62,2.62,0,0,0,.48-1.06,14.25,14.25,0,0,1,.14-1.75c.31-.76,1.17-1.06,1.71-1.58A2.6,2.6,0,0,0,21,4.17c.08-.24,0-.49,0-.71s.07-.43.11-.65c.72-.24,1.31.07,1.76.93C22.13,5,21.27,6.12,20.46,7.31c-1.62,2.37-2.84,5-4.32,7.45C13.68,19,10.91,23.1,8.86,27.57ZM9.1,29c2.16-5.11,5.34-9.67,8.18-14.44,1.34-2.28,2.46-4.68,3.95-6.83a43.24,43.24,0,0,0,3.94-6.23,5.8,5.8,0,0,1,2.55.2,21.37,21.37,0,0,0-2,3Q24,7.29,22.34,9.87q-3.15,4.83-6.14,9.78c-1.84,3.07-3.91,6.11-5.06,9.52a9.3,9.3,0,0,1-2-.14ZM28.64,5.27c0,.81-.05,1.62-.08,2.43-.09,2.72-.19,5.44-.25,8.18-.07,3-.54,6-.59,9,0,1,.27,1.28-.83,1.75a8.58,8.58,0,0,1-1.49.31c-1.39.34-2.76.65-4.17.91A92.24,92.24,0,0,1,12,29.11a44.65,44.65,0,0,1,4.09-7.69q2.34-4,4.84-7.87T26,5.83c.43-.65.87-1.28,1.3-1.91S28,2.16,28.7,3.11c.25.34,0,1.65-.05,2.16Z"/><path class="cls-1" d="M18,25.46a.4.4,0,0,0-.29.12.38.38,0,0,0-.12.29.4.4,0,0,0,.12.29.41.41,0,0,0,.58,0,.4.4,0,0,0,.12-.29.38.38,0,0,0-.12-.29A.4.4,0,0,0,18,25.46Z"/><path class="cls-1" d="M19.26,21.51a.4.4,0,0,0-.29.12.38.38,0,0,0-.12.29.42.42,0,0,0,.12.29.41.41,0,0,0,.58,0,.42.42,0,0,0,.12-.29.38.38,0,0,0-.12-.29A.4.4,0,0,0,19.26,21.51Z"/><path class="cls-1" d="M21.67,23.54a.38.38,0,0,0-.29.12.38.38,0,0,0-.12.28.41.41,0,0,0,.41.41.4.4,0,0,0,.29-.12.43.43,0,0,0,.12-.29.42.42,0,0,0-.12-.28A.4.4,0,0,0,21.67,23.54Z"/><path class="cls-1" d="M25.41,21.07a.42.42,0,0,0-.29.12.41.41,0,0,0,0,.58.47.47,0,0,0,.29.12.43.43,0,0,0,.29-.12.41.41,0,0,0,0-.58A.38.38,0,0,0,25.41,21.07Z"/><path class="cls-1" d="M22.47,19.75a.47.47,0,0,0-.29.12.45.45,0,0,0-.12.29.43.43,0,0,0,.12.29.42.42,0,0,0,.29.12.41.41,0,0,0,.41-.41.4.4,0,0,0-.12-.29A.43.43,0,0,0,22.47,19.75Z"/><path class="cls-1" d="M21.4,16.15a.39.39,0,0,0-.4.41.44.44,0,0,0,.11.29.47.47,0,0,0,.29.12.43.43,0,0,0,.29-.12.4.4,0,0,0,.12-.29.41.41,0,0,0-.41-.41Z"/><path class="cls-1" d="M25,17.83a.45.45,0,0,0,.29-.12.42.42,0,0,0,.12-.29.38.38,0,0,0-.12-.29.41.41,0,0,0-.58,0,.38.38,0,0,0-.12.29.42.42,0,0,0,.12.29A.45.45,0,0,0,25,17.83Z"/><path class="cls-1" d="M24.13,13.52a.47.47,0,0,0-.29.12.45.45,0,0,0-.12.29.43.43,0,0,0,.12.29.42.42,0,0,0,.29.12.41.41,0,0,0,.41-.41.4.4,0,0,0-.12-.29A.43.43,0,0,0,24.13,13.52Z"/><path class="cls-1" d="M26.22,10.4a.45.45,0,0,0-.29.12.41.41,0,1,0,.58,0A.45.45,0,0,0,26.22,10.4Z"/><path class="cls-1" d="M26.8,14.7a.42.42,0,0,0-.28.12.4.4,0,0,0-.12.29.38.38,0,0,0,.12.29.38.38,0,0,0,.28.12.41.41,0,0,0,.41-.41.4.4,0,0,0-.12-.29A.43.43,0,0,0,26.8,14.7Z"/><path class="cls-1" d="M25,24.89a.38.38,0,0,0-.29.12.38.38,0,0,0-.12.28.41.41,0,0,0,.41.41.42.42,0,0,0,.29-.12.43.43,0,0,0,.12-.29.41.41,0,0,0-.41-.4Z"/></g></g></svg>