<svg xmlns="http://www.w3.org/2000/svg" viewBox="0 0 47.06 35.16"><g id="Layer_2" data-name="Layer 2"><g id="icon"><path d="M40.61,17.36a15.76,15.76,0,0,0-5.14,2.25,17,17,0,0,0-5.23-2.25.71.71,0,0,0-.85.51s0,0,0,.06c-.07.5-.69,5,.6,6.91s3.92,3,5.79,1.71a3.73,3.73,0,0,0,1.5-2.34l1.44-1.49a.7.7,0,0,0-1-1l-.52.54a5.38,5.38,0,0,0-.74-1.66,13.7,13.7,0,0,1,3.74-1.69c.18,1.7.2,4.06-.43,5a3.61,3.61,0,0,1-1.55,1.32.7.7,0,0,0,.29,1.33,4.28,4.28,0,0,0,2.39-1.89c1.27-1.93.62-6.26.54-6.78a.69.69,0,0,0-.79-.58Zm-9.48,6.73c-.69-1.06-.62-3.62-.47-5.15,1.69.51,4,1.46,4.62,2.44a3.23,3.23,0,0,1,.34,3.34L33.89,22.5a.69.69,0,0,0-1-.18.7.7,0,0,0-.18,1l0,.06,1.75,2.25a3.17,3.17,0,0,1-3.41-1.51ZM3.8,16.65c-.35-1.6,1.06-3.68,2.08-4.76.45-.47,1.17.25.72.72a5.91,5.91,0,0,0-1.7,3.06c-.19,1.65,1.91,1.47,3,1.42.65,0,.64,1,0,1C6.76,18.15,4.15,18.22,3.8,16.65Zm6.49.45a.51.51,0,0,1,0,1A.51.51,0,0,1,10.29,17.1ZM12,4.6,12,4.05a.53.53,0,0,1,.51-.51c.25,0,.54.23.5.51L13,4.6a.53.53,0,0,1-.51.51C12.23,5.1,11.94,4.87,12,4.6Zm5.29-1.23A3.32,3.32,0,0,1,18,2.91c.59-.27,1.1.6.51.87a2.67,2.67,0,0,0-.51.31C17.49,4.5,16.77,3.79,17.27,3.37Zm5.35.07c-.53-.37,0-1.24.51-.87a5.14,5.14,0,0,0,.78.46c.59.28.08,1.15-.51.87A5.14,5.14,0,0,1,22.62,3.44Zm3.7,1A1.68,1.68,0,0,1,27.18,4c.63-.15.9.82.26,1a.87.87,0,0,0-.41.22C26.57,5.62,25.85,4.9,26.32,4.45ZM20.37,7.68c-.48-.44.23-1.15.72-.71.1.1.2.2.29.31.41.5-.3,1.22-.71.72A2.27,2.27,0,0,0,20.37,7.68ZM14,7.13a2.5,2.5,0,0,1,.66-.5c.57-.31,1.08.57.51.87a1.44,1.44,0,0,0-.46.35C14.29,8.33,13.58,7.62,14,7.13Zm10.43.19c-.35-.55.52-1.06.87-.51a1.13,1.13,0,0,0,.49.43c.58.3.07,1.17-.51.88A2.18,2.18,0,0,1,24.45,7.32Zm-15.74,0a1.38,1.38,0,0,1,.61-.9c.54-.37,1,.51.51.88a.4.4,0,0,0-.15.29C9.56,8.28,8.59,8,8.71,7.37Zm20.63-.71c-.5-.41.22-1.12.72-.71l.45.38c.5.41-.22,1.12-.72.71Zm17.72,14.9a11.63,11.63,0,0,0-8-11h0a18.86,18.86,0,0,0-7.2-7.18A23.9,23.9,0,0,0,14.35.63c-3.79.89-6.46,3.06-8.89,6-2,2.4-4.19,5.57-4.22,8.82,0,1,.22,3,.93,3.73a1.77,1.77,0,0,0,.22.16c-1.31.85-3,2.49-2.17,3.95a2,2,0,0,0,1.93.77A3.16,3.16,0,0,0,3,23.81a6,6,0,0,0,.64,3.74A2.77,2.77,0,0,0,1.32,29c-.47,1.23-.1,4.09,1,5a3.92,3.92,0,0,0,2,.48c1.63.2,3.22.42,4.87.47,3.75.1,7.5.2,11.25.22s7.56-.07,11.33-.23c2.19-.1,5.34,0,7.27-1.3a2.89,2.89,0,0,0,1.06-1.44A11.64,11.64,0,0,0,47.06,21.56ZM2.86,12.91c1.4-4,4.77-8.29,8.57-10.19a21.13,21.13,0,0,1,12-1.55c5.35.86,11.24,4.06,14.1,8.76,0,.06.07.13.11.2a11.27,11.27,0,0,0-2.18-.21A11.64,11.64,0,0,0,24,19.58h0l-2.68,0c-3.83,0-7.67,0-11.5-.1-1.88,0-5.8.35-7-1.35C1.76,16.76,2.4,14.23,2.86,12.91ZM2.64,23c-2.93.08-.34-2.42.86-3.06a17.85,17.85,0,0,0,3.69.46c4.67.35,9.41.16,14.08.2l2.55,0c0,.32-.05.64-.05,1a11.49,11.49,0,0,0,.37,2.83h0a10.43,10.43,0,0,1-2.18-1,4.27,4.27,0,0,0-2.44-.72c-1.18.1-2.06.71-3.28.77-1.61.09-1.63-.61-3-1s-2.21.54-3.2,1.28-1.14.92-2.66.63c-2-.36-1-.25-1.92-1.27a1.79,1.79,0,0,0-.93-.63C3.87,22.35,3.3,22.93,2.64,23ZM24.51,25.6a11.19,11.19,0,0,0,1,2h0c-1.71.12-3.41.25-5.12.3-3,.08-6,0-8.94-.16L7,27.59c-2.53-.09-3.17-1.7-3-3.95.91.15.84.86,1.37,1.5,1.55,1.86,3.93.49,5.37-.65,1-.79,1.59-1.28,2.89-.65a14.31,14.31,0,0,0,1.34.84c1.14.42,1.86-.09,2.94-.39,2.7-.76,2.62-.27,4.63.71a6.57,6.57,0,0,0,1.59.57l.33,0Zm9.27,8.22c-4.42.3-8.87.34-13.3.33-4.09,0-8.22,0-12.3-.26-1.74-.1-5.08.07-5.75-1.8-.78-2.19.42-3.49,2.5-3.66a10.34,10.34,0,0,0,2.49.18,150.11,150.11,0,0,0,15.15.2l3.56-.25h0a11.59,11.59,0,0,0,12.44,4.2h0C37.47,33.67,35.12,33.73,33.78,33.82Zm5.5-1.29.21-.08Zm-3.86-.41A10.56,10.56,0,1,1,46,21.56,10.56,10.56,0,0,1,35.42,32.12Z"/></g></g></svg>