<?xml version="1.0" encoding="utf-8"?>
<!-- Generator: Adobe Illustrator 26.0.2, SVG Export Plug-In . SVG Version: 6.00 Build 0)  -->
<svg version="1.1" id="Layer_1" xmlns="http://www.w3.org/2000/svg" xmlns:xlink="http://www.w3.org/1999/xlink" x="0px" y="0px"
	 viewBox="0 0 3000 3000" style="enable-background:new 0 0 3000 3000;" xml:space="preserve">
<style type="text/css">
	.st0{fill:url(#SVGID_1_);}
	.st1{fill:#080909;}
	.st2{fill-rule:evenodd;clip-rule:evenodd;fill:#FFFFFF;}
	.st3{fill:#7BCB46;}
	.st4{fill:#1FA134;}
	.st5{fill:#C91F1D;}
	.st6{fill:#EE4342;}
	.st7{fill:#FFAE39;}
	.st8{fill:#D29220;}
	.st9{fill:#CD752B;}
	.st10{fill:#F3AD4B;}
	.st11{fill:#FFC570;}
	.st12{fill:#95542C;}
	.st13{fill:#65330E;}
	.st14{fill:#D78026;}
	.st15{fill-rule:evenodd;clip-rule:evenodd;fill:#FCF9B2;}
</style>
<linearGradient id="SVGID_1_" gradientUnits="userSpaceOnUse" x1="1463.3235" y1="2351.4126" x2="693.1311" y2="387.0722" gradientTransform="matrix(0.9164 -0.4002 0.4002 0.9164 -217.6176 424.0635)">
	<stop  offset="0" style="stop-color:#F2DB19"/>
	<stop  offset="0" style="stop-color:#EBBD1A"/>
	<stop  offset="0.832" style="stop-color:#C91F1D"/>
</linearGradient>
<path class="st0" d="M1436.93,728.26l-0.03,0.03l-57.99,9.63c1.91-19.86,2.12-39.59,1.61-59.15c-0.77-27.91-3.47-55.54-7.51-82.95
	c-3.96-27.44-9.45-54.58-16.43-81.55c-3.45-13.49-7.43-26.92-12.13-40.28c-2.12-6.65-5.01-13.29-7.59-19.95
	c-1.2-3.33-2.92-6.67-4.4-10.01c-1.63-3.31-2.98-6.62-4.83-9.93l-5.74-10.02c-1.91-3.38-4.07-6.08-6.13-9.15l-6.25-8.93l-7.03-8.53
	c-4.45-5.84-10.02-11-15.19-16.38c-2.64-2.63-5.72-4.97-8.57-7.47l-4.37-3.65c-1.5-1.18-3.14-2.22-4.72-3.32
	c-12.4-9.09-27.03-16.09-42.51-19.79c-15.48-3.88-31.73-4.12-46.96-1.57c-15.34,2.48-29.65,7.75-42.82,14.35
	c-13.22,6.6-25.27,14.75-36.49,23.59c-11.16,8.91-21.47,18.61-31.01,28.9c-7.69,8.33-14.78,16.77-21.47,25.98l-3.87-2.42
	c-3.82-2.3-7.45-4.88-11.57-6.74c-8.11-3.94-16-8.35-24.71-11.22c-4.29-1.52-8.43-3.46-12.88-4.62L982,409.55
	c-2.19-0.63-4.51-0.99-6.8-1.31l-6.92-1.09l-6.89-1.06c-2.32-0.18-4.64-0.26-7.02-0.38l-7.02-0.33c-2.35-0.16-4.7-0.2-7.01,0.04
	l-14.13,0.96l-13.98,2.47c-4.65,0.8-9.09,2.39-13.7,3.58c-18.01,5.61-34.85,14.4-50.09,24.94c-15.33,10.51-28.76,23.15-40.94,36.59
	c-3,3.37-5.99,6.8-8.88,10.28c-2.72-2.07-5.61-4.09-8.64-5.91c-6.83-4.04-14.67-7.4-23.45-8.77c-8.72-1.49-18.31-0.5-26.72,2.73
	c-4.74,1.87-9.04,4.26-12.95,7.07c-10-10.57-21.69-17.09-32.99-22.2c-12.85-5.64-25.81-9.41-38.71-12.3
	c-12.9-2.89-25.81-4.9-38.7-6.32c-12.98-1.39-25.58-2.26-38.99-2.47l-0.74-0.02c-3.32-0.02-6.36,1.25-8.61,3.37
	c-2.28,2.14-3.73,5.11-3.86,8.48c-3.12,26.17-2.19,53.15,3.65,79.43c2.89,13.14,7.01,26.06,12.3,38.59
	c2.67,6.29,5.66,12.46,8.99,18.51c1.67,3,3.42,6.03,5.31,8.98c0.98,1.5,1.95,3.01,2.98,4.52l1.6,2.29c0.63,0.84,1.06,1.42,2.05,2.64
	l0.22,0.23c0.3,0.38,0.6,0.76,0.93,1.11c0.36,0.38,0.74,0.73,1.13,1.08c-0.67,1.45-1.31,2.94-1.84,4.48
	c-2.87,7.71-3.47,16.15-2.54,23.86c1.01,7.75,3.46,14.86,6.73,21.2c1.58,3.08,3.33,6,5.21,8.81c-5.13,3.67-10.19,7.55-15.1,11.57
	c-14.11,11.51-27.49,24.38-38.89,39.12c-11.48,14.66-21.29,31.04-27.87,48.85c-6.64,17.81-10.12,36.88-10.04,55.69
	c0.05,18.89,3.43,37.41,9.05,54.85c4.8,14.53,11.08,28.39,18.42,41.47c-9.46,6.15-18.21,12.83-26.88,20
	c-10.77,9.03-20.97,18.85-30.43,29.57c-9.38,10.75-18.13,22.34-25.39,35.22c-7.31,12.77-13.3,26.83-16.57,42.02
	c-3.35,15.1-3.91,31.37-0.81,47.06c3.01,15.67,9.31,30.5,17.65,43.46c8.22,13.07,18.35,24.36,29.13,34.42
	c2.67,2.55,5.47,4.88,8.23,7.34c2.85,2.27,5.65,4.6,8.53,6.84c2.97,2.16,5.63,4.28,8.88,6.51c3.22,2.25,6.48,4.25,9.71,6.17
	c12.93,7.66,25.94,13.47,39.03,18.83c13.08,5.36,26.27,10.02,39.59,14.17c26.58,8.3,53.44,15.08,80.62,20.5
	c13.56,2.71,27.25,5.09,40.97,7.15c13.76,1.92,27.61,3.42,41.48,4.53c19.56,1.48,39.25,2.28,59.16,1.32l-12.56,57.46l0,0.06
	c-53.35,297.74,51.13,554.22,182.42,676.36c29.57-28.17,95-13.77,102.92-4.59c4.45,5.16-39.75-44.24-39.36-43.99
	c-55.48-188.42-129.93-584.17-127.1-589.31c0.11-0.19,0.42-0.78,0.42-0.78c14.6-25.91,30.57-51.89,46.86-77.23
	c16.38-25.37,33.39-50.3,51.02-74.75c17.51-24.52,35.94-48.29,54.86-71.54c18.92-23.31,38.97-45.48,59.4-67.06l0.41-0.44
	c0.23-0.22,0.44-0.47,0.62-0.69c2.91-3.34,4.76-7.29,5.48-11.38c4.47-0.57,8.78-2.43,12.45-5.55l0.38-0.36
	c22.6-19.34,45.73-38.23,69.96-55.96c24.14-17.76,48.84-34.99,74.18-51.24c25.32-16.39,51.08-32.14,77.24-47.23
	c7.54-4.34,15.16-8.64,22.78-12.89l0.03-0.03c18.79-10.46,37.73-20.52,56.68-29.98c0,0,92.28,11.73,92.5,11.71
	c372.57-40,577.04,339.18,650.73,512.46c4.09-9.78,9.52-19.11,15.19-27.59c8.64-12.91,20-27.57,34.7-34.38
	C2243.8,989.01,1896.51,699.49,1436.93,728.26z M869.53,1153.11l-0.65,0.01l-8.03,0.07l-16.17-0.04
	c-10.75-0.07-21.52-0.34-32.29-0.73c-21.56-0.8-43.05-2.16-64.43-4.29c-21.41-2.1-42.68-4.99-63.64-9
	c-20.9-4.01-41.53-9.15-61.06-16.39c-19.29-7.34-38.06-16.88-50.75-30.65c-3.1-3.41-5.88-7.07-7.95-10.97
	c-1.93-3.63-3.77-8.62-5.3-13.18c-3.04-9.31-4.5-18.94-4.04-28.41c0.46-9.46,2.67-18.81,6.85-27.53
	c4.18-8.72,9.82-16.95,16.77-24.25c6.84-7.42,14.78-14.02,23.25-19.94c4.23-2.93,8.63-5.69,13.16-8.25c2.43-1.4,4.96-2.74,7.47-4
	c0.17,0.06,0.31,0.15,0.48,0.16c3.23,3.84,6.5,7.32,9.88,10.85c5.15,5.23,10.44,10.22,15.88,15.12
	c10.88,9.64,22.38,18.58,34.44,26.78c24.07,16.34,50.06,29.92,77.41,40.09c13.66,5.1,27.59,9.55,41.79,12.99
	c7.03,1.92,14.23,3.19,21.36,4.74c7.2,1.21,14.36,2.62,21.59,3.47c20.77,2.76,41.69,4,62.61,3.75
	C894.81,1099.93,882.04,1126.32,869.53,1153.11z M997.75,941.43c-4.37,2.02-9.17,3.95-14.1,5.67c-19.79,7-41.13,12.11-62.5,16.13
	c-21.37,4.03-43.14,6.4-64.57,6.68c-10.78,0.07-20.97-0.7-31.67-2.3c-10.65-1.54-21.28-3.66-31.75-6.24
	c-21-5.24-41.61-12.33-61.19-21.38c-19.61-9.02-38.19-20.17-54.37-33.86c-16.21-13.6-30.01-29.91-38.97-48.56
	c-4.57-9.3-7.73-19.21-9.63-29.37c-1.88-9.9-1.95-19.75,0.16-29.44c4.11-19.39,16.59-36.91,31.92-51.45
	c15.42-14.62,33.75-26.57,52.93-36.97c9.58-5.15,19.45-9.93,29.51-14.28c5.03-2.14,10.09-4.26,15.2-6.2l7.66-2.86l2.81-0.99
	l2.22,2.54l5.51,6.32l11.11,12.56l22.27,25.08c14.78,16.76,29.79,33.36,44.8,49.9l45.09,49.69c15.13,16.49,30.4,32.84,45.67,49.19
	c15.27,16.35,30.58,32.68,46.22,48.9c3.02,3.16,6.1,6.31,9.24,9.47C1000.19,940.29,998.98,940.88,997.75,941.43z M1099.7,738.77
	c-1.28,21.41-5.08,42.99-10.35,64.08c-2.65,10.53-5.58,20.99-8.81,31.3c-3.24,10.31-6.95,20.41-10.87,30.05
	c-1.99,4.79-4.12,9.43-6.32,13.71c-0.45,0.87-0.9,1.67-1.35,2.43c-2.75-2.98-5.46-5.93-8.18-8.82
	c-15.44-16.41-30.92-32.57-46.6-48.54c-15.68-15.97-31.31-31.99-47.13-47.82l-47.61-47.27c-15.86-15.75-31.75-31.52-47.9-46.99
	l-24.11-23.34l-12.13-11.6l-6.04-5.77l-2.92-2.76l1.41-3.36l3.32-7.53c2.25-4.98,4.64-9.93,7.12-14.85
	c4.95-9.78,10.29-19.37,15.94-28.7c11.43-18.57,24.42-36.25,39.88-50.89c15.37-14.57,33.59-26.04,53.2-29.07
	c9.78-1.6,19.61-1.05,29.41,1.29c10.05,2.43,19.78,6.11,28.82,11.09c18.19,9.92,33.75,24.52,46.57,41.36
	c12.85,16.87,23.04,36.02,31.06,56.01c8.04,20.02,14.1,40.97,18.27,62.2c2.06,10.62,3.66,21.33,4.64,32.03
	C1100.05,717.79,1100.31,728.01,1099.7,738.77z M1281.26,706.58c-0.13,10.8-0.43,21.55-0.87,32.31l-0.78,16.15l-0.5,8.01l-0.05,0.71
	c0.03-0.03,0.12-0.05,0.17-0.05c-0.09,0.08-0.12,0.22-0.18,0.33l0.01-0.28c-27.43,11.11-54.44,22.54-81.48,34.53
	c-0.04,0.25-0.04,0.54-0.05,0.76c-0.25-0.15-0.44-0.3-0.7-0.45c0.26-0.08,0.52-0.21,0.75-0.32c1.32-20.84,1.16-41.83-0.53-62.71
	c-0.52-7.28-1.57-14.54-2.37-21.77c-1.2-7.18-2.11-14.42-3.68-21.59c-2.68-14.32-6.45-28.45-10.85-42.37
	c-8.8-27.79-21.03-54.48-36.16-79.34c-7.56-12.43-15.94-24.37-25.01-35.77c-4.59-5.64-9.33-11.21-14.3-16.55
	c-3.43-3.71-6.82-7.19-10.6-10.68c1.41-2.54,2.94-5.13,4.48-7.52c2.8-4.4,5.77-8.62,8.93-12.75c6.32-8.15,13.33-15.73,21.07-22.19
	c7.66-6.55,16.16-11.79,25.04-15.52c8.94-3.73,18.41-5.48,27.88-5.48c9.47,0.01,19,2,28.17,5.48c4.48,1.78,9.36,3.8,12.9,5.98
	c3.79,2.22,7.27,5.21,10.55,8.46c13.12,13.36,21.7,32.6,28.02,52.26c6.26,19.82,10.39,40.71,13.32,61.79
	c2.93,21.14,4.72,42.52,5.76,64C1281.3,663.49,1281.55,685.06,1281.26,706.58z"/>
<path class="st1" d="M883.04,1489.39c0-375.76,304.62-680.38,680.38-680.38c375.76,0,680.38,304.62,680.38,680.38
	c0,375.76-304.62,680.38-680.38,680.38C1187.66,2169.77,883.04,1865.15,883.04,1489.39"/>
<path class="st2" d="M914.81,1489.39c0-358.21,290.4-648.61,648.61-648.61c358.21,0,648.61,290.4,648.61,648.61
	S1921.63,2138,1563.42,2138C1205.21,2138,914.81,1847.6,914.81,1489.39"/>
<path class="st1" d="M1563.42,870.51c-341.8,0-618.88,277.08-618.88,618.88c0,341.8,277.08,618.88,618.88,618.88
	c341.8,0,618.88-277.08,618.88-618.88C2182.3,1147.59,1905.22,870.51,1563.42,870.51"/>
<path class="st3" d="M972.45,1352.13c-4.74,0.42-9.27,1.19-13.6,2.25c-9.71,43.57-14.87,88.85-14.87,135.35
	c0,1.34,0.04,2.68,0.05,4.02c36.26,9.72,93.53,0.18,175.99-45.68l18.11-10.07l12.07,16.89c10.88,15.22,22.66,27.35,35,36.83
	c34.31,26.36,73.84,32.46,110.69,27.83c38.1-4.78,73.24-20.79,97.41-38.07c10.24-7.32,18.18-14.64,23.16-21.12l18.16-23.65
	l18.46,23.29c2.72,3.44,5.55,6.7,8.45,9.77c29.24,30.93,71.48,49.42,116.06,52.69c44.78,3.28,91.66-8.84,129.87-39.16
	c4.19-3.33,8.24-6.83,12.11-10.49l13.79-13.04l15.56,11.04c36.33,25.76,82.13,45.31,131.93,44.02
	c39.61-1.02,82.34-15.37,125.72-50.52l13.94-11.29l14.42,10.57c59.71,43.73,109.57,44.77,143.74,26.14c1.41-0.77,2.8-1.58,4.17-2.41
	c-0.14-37.35-3.59-73.92-10.06-109.43c-11.29,20.79-25.6,44.98-33.23,53.31c0.5-7.14-4.05-28.94-8.02-46.25
	c-32.12,14.39-69.67,25.33-112.63,31.91c-14.56,2.23-32.58,4.13-53.71,5.71c-26.28,13.97-83.03,40.91-97.74,38.82
	c6.99-6.74,13.96-20.95,18.65-34.86c-48.29,1.52-105.07,2.02-168.53,1.47c-9.96-0.09-20.09-0.19-30.38-0.33
	c-28.65,12.58-108.4,44.11-123.21,41.86c12.31-8.14,29.74-27.17,41.84-43.41c-74.07-1.8-154.32-4.76-238.59-8.92
	c-31.86,13.85-101.24,41.31-115.2,39.21c11.87-8.11,28.3-27.01,39.63-43.19c-16.02-0.9-32.16-1.84-48.4-2.82
	c-63.61-3.85-118.22-11.43-164.47-22.05c-37.43,13.07-81.32,27.02-90.89,25.49c13.04-7.21,29.65-23.19,44.25-38.09
	C1009.82,1368.69,989.94,1360.79,972.45,1352.13"/>
<path class="st4" d="M972.45,1352.13l-1.36,0.13c-7.03,9.03-12.55,17.16-16.8,24.53c-2.83,15.38-5.1,30.96-6.78,46.72
	c23.35,33.02,136.72,6.69,189.6-5.85c36.76,38.44,180.15,85.36,293.16,8.14c106.09,65.14,185.31,52.95,298.6,12.67
	c102.55,28.01,202.45,46.16,298.59-9.5c38.12,27.28,114.77,31.32,152.73,3c-1.69-18.27-4.15-36.31-7.39-54.09
	c-11.29,20.79-25.6,44.98-33.23,53.31c0.5-7.14-4.05-28.94-8.02-46.25c-32.12,14.39-69.67,25.33-112.63,31.9
	c-14.56,2.23-32.58,4.13-53.71,5.71c-26.28,13.97-83.03,40.91-97.74,38.82c6.99-6.74,13.96-20.95,18.65-34.86
	c-48.29,1.52-105.07,2.02-168.53,1.47c-9.96-0.09-20.09-0.19-30.38-0.33c-28.65,12.58-108.4,44.11-123.21,41.86
	c12.31-8.14,29.74-27.17,41.84-43.41c-74.07-1.8-154.32-4.76-238.59-8.92c-31.86,13.85-101.24,41.31-115.2,39.21
	c11.87-8.11,28.3-27.01,39.63-43.19c-16.02-0.9-32.16-1.84-48.4-2.82c-63.61-3.85-118.22-11.43-164.47-22.05
	c-37.43,13.07-81.32,27.02-90.89,25.49c13.04-7.21,29.65-23.19,44.25-38.09C1009.82,1368.69,989.94,1360.79,972.45,1352.13"/>
<path class="st5" d="M990.14,1542.33c2.38,6.02,5.98,11.43,10.48,15.94c8.51,8.5,20.27,13.77,33.2,13.77c14.51,0,25.4-0.22,38-0.46
	c94.09-1.86,261.03-5.16,297.89,46.49l1.64,2.73c6.67,12.77,40.58,1.24,82.97-13.17c103.14-35.07,243.22-82.69,323.72,117.08
	c30.18,74.89,51.55,92.69,69.35,4.64c7.26-35.98,16.03-74.72,51.78-106.27c34.07-30.07,91.44-51.03,193.84-51.03
	c2.52,0,0.37,0.1,1.85,0.06c15.13-0.42,26.23-6.15,33.41-14.54c2.53-2.95,4.62-6.26,6.29-9.81c-33.62,0.52-71.7-10.08-112.64-36.74
	c-47.59,34.55-95.11,49.02-139.96,50.18c-54.19,1.4-103.78-16.77-144.58-42.34l-1,0.8c-47.91,38.01-106.38,53.23-162.04,49.16
	c-52.66-3.86-103.08-25.04-140-60.58c-4.33,3.73-9.06,7.44-14.13,11.07c-29.48,21.09-72.31,40.6-118.67,46.43
	c-47.62,5.97-99.08-2.21-144.5-37.1c-11.13-8.55-21.85-18.69-31.99-30.61C1071.95,1525.47,1027.13,1538.92,990.14,1542.33"/>
<path class="st6" d="M1013.25,1567.29c6.22,3.05,13.21,4.76,20.57,4.76c14.51,0,25.4-0.22,38-0.46
	c54.33-1.07,132.95-2.63,196.79,6.2c-33.35-11.1-91.95-17.33-113.38-23.49c-36.19-10.41-60.17-18.09-94.1-7.24
	C1041.64,1553.28,1024.4,1561.46,1013.25,1567.29 M1599.35,1576.09c67.02,0.99,132.61,34.27,178.69,148.61
	c30.18,74.89,51.55,92.69,69.35,4.64c7.26-35.98,16.03-74.72,51.78-106.27c34.07-30.07,91.44-51.03,193.84-51.03
	c2.52,0,0.37,0.1,1.85,0.06c15.13-0.42,26.23-6.15,33.41-14.54c1.73-2.02,3.26-4.21,4.59-6.54
	c-53.22,33.57-133.37-15.2-227.49,42.37c-32.56,19.92-57.26,44.9-75.02,90.5c-33.45,85.92-39.61-134.75-231.68-107.91
	c-52.77-8.19-87.34-3.33-145.3,7.71c-19,3.62-2.26-8.6-4.07-23.98c-1.81-15.38-44.79,0.9-68.76,14.03
	c-14.39,7.87-40.49,12.65-59.08,15.21c22.01,6.91,39.12,16.33,48.26,29.12l1.64,2.73c6.67,12.77,40.58,1.24,82.97-13.17
	c44.11-15,94.98-32.28,145.05-31.53L1599.35,1576.09z"/>
<path class="st7" d="M963.57,1586.56c-1.73,6.92-2.51,14.14-2.32,21.36c0.29,11.43,3.04,22.79,8.25,32.85
	c4.97,9.59,12.2,17.91,21.66,23.78c9.82,6.09,22.43,9.74,37.9,9.74c34.18,0,62.89,8.67,88.31,24.31
	c24.56,15.11,45.49,36.51,65.06,62.7l2.14,2.86c28.23,37.79,51.42,68.84,78.61,71.78c11.29,1.22,24.75-1.83,41.51-10.51
	c19.2-9.94,41.87-26.86,69.27-52.4c40.23-37.49,95.49-62.14,158.84-78.02c49.57-12.43,104.37-19.53,160.81-23.3
	c-65.51-74.12-155.03-43.69-224.4-20.11c-15.35,5.22-29.95,10.18-43.63,14.02c-47.5,16.33-123.44,40.37-136.51,38.29
	c24.27-13.41,86.37-40.49,30.69-68.31c-43.44-21.71-171.29-19.19-247.06-17.69c-17.6,0.34-32.99,0.65-38.91,0.65
	C1006.78,1618.58,981.29,1606.79,963.57,1586.56 M1918.77,1669.62c21.48,0.6,42.22,1.3,62.24,1.98c41.6,1.4,80.02,2.69,116.21,2.69
	c16.38,0,29.6-4.16,39.74-11c9.25-6.25,16.19-14.77,20.82-24.42c4.87-10.15,7.3-21.59,7.3-33.08c0-5.93-0.65-11.85-1.95-17.59
	c-15.21,17.52-37.59,29.43-66.98,30.24c-3.12,0.08-2.27,0.12-3.12,0.12c-89.36,0-136.95,16.11-163.13,39.21
	C1925.69,1661.49,1922.01,1665.45,1918.77,1669.62z"/>
<path class="st8" d="M963.71,1586.71c-0.16,21.45,11.97,29.13,29.59,39.11c69.64,39.43,245.07-0.13,269.64,47.45
	c20.32,39.35-96.26,114.73,57.86,63.17c65.54-21.92,180.16-73.9,237.17-83.21c38.54-6.3,77.54-3.77,117.72,1.22
	c-63.28-51.49-143.24-24.33-206.47-2.83c-15.35,5.22-29.95,10.18-43.63,14.02c-47.5,16.33-123.44,40.37-136.51,38.29
	c26.02-14.38,87.24-43.15,28.13-69.52c-45.71-20.4-170.17-17.95-244.49-16.48c-17.6,0.34-32.99,0.65-38.91,0.65
	C1006.85,1618.58,981.42,1606.85,963.71,1586.71 M2164.03,1592.88c-0.26-1.57-0.56-3.13-0.91-4.67
	c-15.21,17.52-37.59,29.43-66.98,30.24c-3.12,0.08-2.27,0.12-3.12,0.12c-89.36,0-136.95,16.11-163.13,39.21
	c-3.02,2.67-5.77,5.46-8.28,8.38c12.35-2.22,24.88-5.09,37.59-8.73c80.53-23.07,107.68-9.95,153.37-16.29
	C2140.91,1637.22,2156.37,1611.69,2164.03,1592.88z"/>
<path class="st9" d="M2091.02,1814.44c-47.22,31.59-104.28,57.27-167.62,77.06c-109.76,34.29-238.95,51.1-367.68,50.43
	c-128.84-0.67-257.34-18.84-365.59-54.48c-57.78-19.03-109.99-43.09-153.8-72.22c98.81,159.67,268.1,271.11,464.47,290.83
	c59.21,4.27,120.52,1.27,182.84-8.56C1855.63,2063.66,2002.06,1958.68,2091.02,1814.44"/>
<path class="st10" d="M2091.02,1814.44c-47.22,31.59-104.28,57.27-167.62,77.06c-109.76,34.29-238.95,51.1-367.68,50.43
	c-128.84-0.67-257.34-18.84-365.59-54.48c-57.78-19.03-109.99-43.09-153.8-72.21c5.26,8.49,10.71,16.85,16.36,25.06
	c151.12,130.24,385.09,213.83,647.74,213.83c41.05,0,86.83-1.8,133.58-7.02C1940.19,1995.45,2029.4,1914.36,2091.02,1814.44"/>
<path class="st11" d="M2091.02,1814.44c-47.22,31.59-104.28,57.27-167.62,77.06c-109.76,34.29-238.95,51.1-367.68,50.43
	c-39.34-0.2-78.65-2.04-117.36-5.51c69.64,13,142.94,19.98,218.64,19.98c64.23,0,234.51-13.75,367.86-53.42
	C2049.44,1875.55,2071.6,1845.93,2091.02,1814.44"/>
<path class="st12" d="M2133.38,1716.34l0.67-0.79l-0.84,0.25L2133.38,1716.34z M1371.72,1881.85
	c59.67,8.82,121.88,13.4,184.19,13.73c123.98,0.65,248.26-15.49,353.68-48.42c73.75-23.04,137.95-54.18,185.56-93.34
	c-56.28,8.74-144.42,19.73-162.09,17.66c52.18-11.08,97.13-25.43,149.76-50.73c-29.63-0.32-65.19-1.51-103.26-2.79
	c-26.31-0.89-53.85-1.82-81.6-2.49c-2,7.67-3.6,15.39-5.13,22.97c-10.7,52.92-47.24,133.42-107.91,82.35
	c-18.07-15.21-35.49-42.91-49.96-78.81c-3.69-9.15-7.56-17.62-11.57-25.5c-63.12,3.05-124.72,9.95-179.3,23.63
	c-56.21,14.09-104.55,35.31-138.48,66.94c-14.84,13.84-28.64,25.5-41.54,35.21c74.3,14.83,145.18,17.97,181.16,14.93
	C1527.2,1863.76,1435.43,1875.53,1371.72,1881.85z M992.26,1715.52c42.02,50.33,108.48,90.23,188.91,119.59
	c-11.22-12.82-22.18-27.51-33.85-43.13l-2.14-2.86c-16.23-21.72-33.1-39.17-52.15-50.89c-18.2-11.2-38.97-17.4-63.96-17.4
	C1015.69,1720.82,1003.41,1718.94,992.26,1715.52z"/>
<path class="st13" d="M2133.38,1716.34l0.67-0.79l-0.84,0.25L2133.38,1716.34z M1877.46,1786.62c23.33-14.6,53.74-19.66,87.12-22.5
	c39.54-10.12,76.47-23.3,118.23-43.38c-29.63-0.32-65.19-1.51-103.26-2.79c-26.31-0.89-53.85-1.82-81.6-2.49
	c-2,7.67-3.6,15.39-5.13,22.97C1889.79,1753.48,1884.65,1770.77,1877.46,1786.62z M1468.74,1856.39
	c26.14-1.08,47.93-5.73,63.41-14.85c66.05-38.91,102.24-54.29,167.39-36.19c36.13,10.03,69.19,22.57,97.65,24.19
	c-3.98-2.33-8.07-5.22-12.28-8.76c-18.07-15.21-35.49-42.91-49.96-78.81c-3.69-9.15-7.56-17.62-11.57-25.5
	c-63.12,3.05-124.72,9.95-179.3,23.63c-56.21,14.09-104.55,35.31-138.48,66.94c-14.84,13.84-28.64,25.5-41.54,35.21
	C1401.11,1849.64,1437.3,1854.13,1468.74,1856.39z M1140.6,1783.14c-14.84-18.95-30.31-34.28-47.58-44.91
	c-18.2-11.2-38.97-17.4-63.96-17.4c-11.62,0-22.42-1.42-32.37-4.04C1032.55,1737.94,1083.67,1761.48,1140.6,1783.14z"/>
<path class="st14" d="M1246.01,1364.04c176.19,10.66,339.27,16.46,471.94,17.61c135.68,1.17,239.94-2.5,294.07-10.78
	c62.35-9.54,111.11-28.81,146.28-54.38c-68.52-235.68-273.27-413.32-523.35-442.08c-60.75-6.24-122.38-4.33-182.63,5.82
	c-226.1,40.95-409.43,204.63-478.61,419.53C1045.78,1343.13,1170.38,1359.46,1246.01,1364.04"/>
<path class="st10" d="M1235.93,1087.65c-0.49,249.51,671.89,323.87,907.06,183.01c-76.33-201.81-255.01-353.32-472.72-391.17
	C1446.26,845.34,1236.23,932.93,1235.93,1087.65"/>
<path class="st11" d="M1862.42,947.12c-147.36-11.68-282.18,24.61-282.18,131.68c0,141.99,373.47,205.99,544.07,147.75
	C2068.62,1108.09,1976.53,1010.13,1862.42,947.12"/>
<path class="st15" d="M1995.04,1139.68c-11.45-5.91-29.37-8.67-37-10.49c5.05,7.43,13.58,22.23,22.63,30.62
	C1998.9,1176.71,2016.82,1150.93,1995.04,1139.68 M1077.14,1184.02c11.45-5.91,29.37-8.67,37-10.49
	c-5.04,7.43-13.58,22.23-22.63,30.63C1073.28,1221.05,1055.36,1195.26,1077.14,1184.02z M1231.92,979.75
	c11.02-6.69,28.7-10.67,36.19-13.02c-4.52,7.76-12.01,23.12-20.46,32.12C1230.63,1016.95,1210.97,992.47,1231.92,979.75z
	 M1175.93,1079.36c12.18,0.74,28.08,7.16,35.17,9.36c-7.7,3.6-21.8,11.52-33.22,13.97
	C1154.89,1107.6,1152.78,1077.97,1175.93,1079.36z M1339.37,1017.99c11.08-6.59,28.8-10.42,36.3-12.7
	c-4.59,7.72-12.21,23.01-20.75,31.93C1337.74,1055.18,1318.3,1030.52,1339.37,1017.99z M1270.55,1117.5
	c10.78-3.73,26.83-3.88,33.74-4.51c-5.36,5.87-14.71,17.76-23.7,23.97C1262.49,1149.45,1250.05,1124.59,1270.55,1117.5z
	 M1425.41,1107.4c12.86-0.86,30.4,3.73,38.12,5.09c-7.58,4.81-21.3,15-32.95,19.1C1407.14,1139.84,1400.96,1109.05,1425.41,1107.4z
	 M1545.92,929.67c12.18-4.21,30.31-4.38,38.12-5.09c-6.05,6.63-16.62,20.07-26.78,27.08
	C1536.81,965.76,1522.76,937.68,1545.92,929.67z M1502.81,1007.25c12.7,2.22,28.64,10.85,35.81,14.01
	c-8.51,2.87-24.26,9.5-36.54,10.72C1477.35,1034.41,1478.66,1003.03,1502.81,1007.25z M1387.43,926.73
	c11.51,5.79,24.28,18.66,30.24,23.76c-8.98,0.29-25.97,2.09-38.08-0.3C1355.21,945.38,1365.53,915.72,1387.43,926.73z
	 M1867.39,952.61c-11.02-6.68-28.7-10.67-36.19-13.02c4.52,7.76,12.01,23.12,20.47,32.11
	C1868.69,989.81,1888.35,965.32,1867.39,952.61z M1895.87,1055.16c-12.86,0.78-29.68,7.56-37.16,9.89
	c8.13,3.81,23.03,12.18,35.1,14.76C1918.11,1085,1920.34,1053.68,1895.87,1055.16z M1747.29,1001.7
	c-11.08-6.59-28.8-10.42-36.3-12.7c4.59,7.72,12.21,23.01,20.75,31.93C1748.91,1038.89,1768.36,1014.23,1747.29,1001.7z
	 M1813.08,1100.02c-12.18-4.21-30.31-4.38-38.11-5.1c6.06,6.63,16.61,20.07,26.77,27.08
	C1822.19,1136.11,1836.25,1108.03,1813.08,1100.02z M1658.53,1087.49c-12.86-0.86-30.39,3.73-38.12,5.09
	c7.58,4.81,21.3,15,32.95,19.1C1676.8,1119.93,1682.99,1089.14,1658.53,1087.49z M1576.02,1140.49c-12.18-4.21-30.31-4.38-38.12-5.1
	c6.05,6.63,16.61,20.07,26.77,27.08C1585.13,1176.58,1599.18,1148.5,1576.02,1140.49z M1376.64,1201.79
	c-12.7,2.22-28.64,10.85-35.81,14.01c8.51,2.87,24.25,9.51,36.54,10.71C1402.1,1228.94,1400.79,1197.57,1376.64,1201.79z
	 M1711.9,905.02c-11.51,5.79-24.28,18.66-30.24,23.76c8.98,0.29,25.97,2.09,38.08-0.3C1744.11,923.66,1733.8,894,1711.9,905.02z
	 M1746.12,1174.88c-12.18-4.21-30.31-4.38-38.11-5.1c6.05,6.63,16.61,20.07,26.77,27.08
	C1755.23,1210.97,1769.29,1182.89,1746.12,1174.88z M1933.51,1203.02c-11.45-5.91-29.37-8.67-37-10.49
	c5.04,7.43,13.57,22.23,22.63,30.62C1937.37,1240.05,1955.29,1214.26,1933.51,1203.02z M1230.38,1211.07
	c-12.18-4.21-30.31-4.38-38.12-5.1c6.05,6.63,16.61,20.07,26.77,27.08C1239.49,1247.16,1253.55,1219.08,1230.38,1211.07z"/>
<path class="st2" d="M1236.22,2090.22c95.65,50.83,204.78,79.64,320.65,79.64c361.9,0,658.21-280.87,682.84-636.52
	c3.01-43.54,1.64-88.14,1.14-132.14c-1.31-116.01,201.18-121.24,213.53-2.11c2.94,28.37,4.09,57.17,4.09,86.28
	c0,766.88-861.8,1147.26-1467.06,728.06c-105.03-72.75-8.74-256.87,115.82-189.73C1153.8,2048.8,1190.43,2065.88,1236.22,2090.22"/>
<g>
	<path d="M1120.34,2094.38c5.7,4.29,9.07,10.11,10.11,17.45c1.09,7.38-0.61,14.04-5.09,20c-4.48,5.96-10.42,9.43-17.81,10.43
		c-7.29,1.08-13.91-0.63-19.86-5.11c-5.96-4.48-9.43-10.37-10.41-17.67c-1.09-7.38,0.59-14.02,5.03-19.92
		c4.59-6.1,10.55-9.61,17.86-10.5C1107.57,2088.05,1114.29,2089.83,1120.34,2094.38z"/>
	<path d="M1173.63,2237.9l-11.35-5.69c-7.99-3.94-13.87-6.73-17.64-8.38c-3.41-1.39-5.81-2.44-7.22-3.16
		c-3.43-1.75-5.71-4.02-6.85-6.79c-1.08-2.75-1-5.33,0.24-7.75c0.8-1.57,1.8-2.62,2.99-3.15c1.19-0.53,3.68-1.03,7.47-1.5
		c2.21-0.29,4.23-1.47,6.07-3.55c1.84-2.07,5.14-6.86,9.89-14.36c7.33-11.71,15.58-26.54,24.75-44.48
		c3.36-6.58,5.16-11.17,5.4-13.79c0.23-2.61-0.89-5.44-3.38-8.48c-2.91-3.47-3.58-6.72-2.03-9.76c1.26-2.47,3.41-3.93,6.44-4.37
		c3.02-0.44,6.28,0.23,9.77,2.01c1.91,0.98,4.31,2.31,7.21,4c4.83,2.75,10.12,5.6,15.85,8.53c4.22,2.16,12.6,6.23,25.14,12.21
		c3.94,1.87,7.48,3.61,10.63,5.22c7.48,3.82,13.2,7.51,17.17,11.06c3.96,3.55,6.9,7.62,8.81,12.21c3.12,7.48,2.69,15.13-1.3,22.95
		c-1.98,3.88-4.73,7.25-8.24,10.09c-3.51,2.85-7.21,4.67-11.08,5.45c-2.77,0.57-4.49,1.5-5.15,2.79c-0.72,1.41-0.14,3.19,1.73,5.35
		c3.66,4.21,6.26,9.47,7.78,15.79c1.55,6.54,0.58,13.24-2.93,20.1c-4.14,8.1-10.87,13.98-20.19,17.66
		c-12.33,4.83-26.14,3.34-41.44-4.47c-2.08-1.06-7.13-3.82-15.14-8.27C1179.75,2241.31,1175.28,2238.81,1173.63,2237.9z
		 M1201.39,2197.94l-4.1,8.01c-3.76,7.37-5.73,12.53-5.9,15.5c-0.17,2.96,1.38,5.28,4.64,6.95c8.55,4.37,15.38,1.55,20.49-8.46
		c6.38-12.48,4.79-21.17-4.77-26.05c-2.47-1.26-4.46-1.61-5.96-1.03C1204.29,2193.43,1202.83,2195.12,1201.39,2197.94z
		 M1226.22,2149.35l-8.88,17.38c-1.41,2.76-2.05,4.88-1.92,6.36s1.06,2.67,2.81,3.56c4.16,2.13,7.88,2.42,11.15,0.86
		c3.28-1.55,6.31-5.05,9.1-10.51c2.7-5.29,3.78-9.89,3.24-13.83c-0.54-3.93-2.67-6.84-6.38-8.74c-1.97-1.01-3.61-1.15-4.93-0.45
		C1229.08,2144.69,1227.68,2146.48,1226.22,2149.35z"/>
	<path d="M1418.79,2241.95l-6.36,22.22c-3.84,13.42-7.56,22.63-11.17,27.64c-7.68,10.54-19.6,16.36-35.74,17.46
		c-9.8,0.74-20.29-0.49-31.46-3.69c-19.49-5.58-33.76-14.69-42.82-27.33c-4.4-6.19-6.84-12.6-7.3-19.23
		c-0.47-6.64,0.93-15.63,4.18-26.98c1.27-4.43,3.51-11.67,6.71-21.73c2.23-7.11,3.68-11.82,4.34-14.13
		c1.44-5.04,2.06-8.64,1.86-10.8c-0.2-2.16-1.34-4.46-3.4-6.88c-3.26-3.76-4.43-7.25-3.51-10.46c0.68-2.37,2.29-4.17,4.85-5.41
		c2.56-1.24,5.6-1.71,9.13-1.43c7.06,0.58,15.15,2.17,24.25,4.78c10.02,2.87,18.12,6.01,24.3,9.42c6.08,3.32,8.38,7.56,6.9,12.72
		c-0.73,2.55-2.25,4.31-4.57,5.29c-0.53,0.24-2.62,0.66-6.27,1.26c-2.19,0.29-3.95,1.46-5.29,3.51c-1.34,2.05-2.75,5.65-4.23,10.81
		c-1.51,5.28-5.02,16.63-10.53,34.03c-3.29,10.36-2.75,19.12,1.64,26.29c3.57,5.88,9.18,9.92,16.83,12.11
		c4.86,1.39,9.51,1.76,13.97,1.09c4.46-0.66,8.16-2.24,11.11-4.75c2.32-1.9,4.2-4.22,5.64-6.96c1.44-2.74,2.88-6.63,4.33-11.67
		l5.74-20.03c4.09-15.45,6.23-24.57,6.41-27.38c0.18-2.8-1.18-5.45-4.09-7.92c-2.76-2.3-4.55-4.19-5.37-5.68
		c-0.82-1.48-0.99-3.07-0.5-4.78c1.04-3.64,3.97-5.68,8.79-6.1c4.82-0.43,12.02,0.73,21.62,3.48c9.41,2.7,15.99,5.46,19.74,8.31
		c3.75,2.85,5.11,6.06,4.09,9.64c-0.5,1.76-1.24,2.96-2.21,3.6c-0.97,0.64-3.26,1.4-6.86,2.27c-3.74,0.9-6.14,2.33-7.19,4.3
		C1425.29,2220.81,1422.77,2228.51,1418.79,2241.95z"/>
	<path d="M1494.01,2277.98c-2.39-0.19-3.98,0.41-4.75,1.81c-0.78,1.4-1.37,4.74-1.79,10.03c-0.63,8-0.62,14.27,0.03,18.82
		c0.21,1.29,0.61,2.3,1.19,3.04c0.57,0.74,1.7,1.69,3.39,2.83c3.61,2.38,5.28,5.27,5.02,8.66c-0.33,4.16-3.19,6.89-8.58,8.21
		c-5.39,1.31-14.36,1.48-26.88,0.48c-23.29-1.84-34.59-7.17-33.89-15.99c0.12-1.51,0.56-2.7,1.33-3.55
		c0.76-0.86,2.44-2.01,5.02-3.45c2.91-1.61,4.96-3.61,6.13-6.02c1.17-2.41,2.19-6.65,3.05-12.73c0.67-4.45,2.1-20.45,4.28-48.03
		c0.69-8.75,0.72-14.73,0.09-17.95c-0.63-3.22-2.34-5.66-5.12-7.34c-2.67-1.54-4.43-2.9-5.28-4.08c-0.86-1.17-1.22-2.65-1.08-4.41
		c0.18-2.33,1.24-4.29,3.17-5.88c1.93-1.59,4.53-2.67,7.81-3.23c2.76-0.48,6.5-0.53,11.23-0.16c2.08,0.16,7.25,0.89,15.51,2.18
		c1.56,0.25,4.05,0.51,7.45,0.78c5.67,0.45,13.25,0.67,22.75,0.66c6.01,0.03,10.22,0.14,12.61,0.33
		c13.47,1.07,24.36,5.19,32.66,12.37c7.47,6.48,10.79,14.92,9.97,25.31c-0.46,5.79-2.26,10.96-5.41,15.49
		c-3.15,4.54-7.24,7.81-12.28,9.81c-2.1,0.85-3.2,1.96-3.31,3.35c-0.14,1.83,1.28,3.43,4.28,4.8c6.42,2.92,10.98,6.92,13.68,12.01
		c2.7,5.09,4.32,12.7,4.85,22.81c0.24,4.2,0.84,6.96,1.82,8.27c0.97,1.31,3.36,2.69,7.18,4.13c1.16,0.47,2.11,1.35,2.83,2.65
		c0.72,1.29,1.02,2.7,0.9,4.21c-0.15,1.95-1.07,3.86-2.73,5.72c-1.67,1.86-3.74,3.27-6.23,4.21c-5.48,2.04-12.82,2.69-22.01,1.96
		c-12.28-0.97-20.8-4.91-25.58-11.81c-2.16-3.08-3.9-6.9-5.22-11.44c-1.32-4.54-2.74-11.56-4.27-21.05
		c-0.98-6.1-2.48-10.46-4.52-13.09C1501.24,2280.07,1498.15,2278.5,1494.01,2277.98z M1492.34,2229.38l-2.78,21.92
		c-0.01,0.19-0.04,0.47-0.07,0.85c-0.18,2.27,0.03,3.8,0.63,4.61c0.6,0.81,1.91,1.29,3.92,1.45c5.54,0.44,9.68-0.67,12.43-3.34
		c2.74-2.66,4.37-7.15,4.87-13.44c0.96-12.15-2.87-18.57-11.49-19.25c-2.46-0.19-4.23,0.24-5.33,1.29
		C1493.42,2224.53,1492.7,2226.5,1492.34,2229.38z"/>
	<path d="M1642.62,2199.39c8.22-0.9,16.1-0.59,23.64,0.93c3.38,0.71,5.67,1,6.86,0.87c1.25-0.14,3.81-1.15,7.67-3.04
		c1.27-0.58,2.59-0.95,3.98-1.11c3.51-0.39,7.1,1.32,10.76,5.11c5.88,6.09,9.25,13.08,10.12,21c0.59,5.4-0.29,9.91-2.66,13.54
		c-2.36,3.63-5.78,5.69-10.23,6.18c-3.64,0.4-7.36-0.52-11.17-2.77c-1.16-0.7-4.09-3.36-8.79-7.99
		c-7.84-7.71-16.25-11.08-25.22-10.09c-8.16,0.9-14.31,4.59-18.46,11.08c-4.15,6.49-5.66,14.79-4.55,24.9
		c1.65,15,6.88,27.36,15.7,37.06c3.31,3.51,7.1,6.19,11.37,8.04c4.27,1.85,8.38,2.56,12.34,2.12c3.26-0.36,5.83-1.74,7.69-4.13
		c1.86-2.4,2.61-5.29,2.24-8.68c-0.33-3.01-1.45-5.05-3.34-6.11c-0.75-0.43-1.42-0.65-2.03-0.68c-0.61-0.03-2.42,0.12-5.43,0.46
		c-2.7,0.3-5.04-0.32-7.02-1.85c-1.98-1.53-3.11-3.61-3.4-6.25c-0.57-5.21,2.47-9.29,9.14-12.25c7.33-3.22,15.96-5.38,25.88-6.47
		c10.61-1.17,19.64-1.05,27.1,0.35c7.08,1.38,10.92,4.87,11.54,10.45c0.25,2.26-0.32,4.31-1.71,6.14c-1.39,1.84-3.32,3.05-5.79,3.64
		c-2.16,0.56-3.54,1.2-4.12,1.93c-0.59,0.73-1.08,2.42-1.49,5.07c-1.6,10.28-5.96,19.21-13.06,26.79
		c-4.89,5.18-11.01,9.47-18.36,12.88c-7.34,3.41-15.22,5.58-23.63,6.51c-13.75,1.51-26.71-0.27-38.9-5.35
		c-12.51-5.17-22.48-13.22-29.91-24.16c-6.21-9.1-9.93-19.27-11.17-30.5c-1.25-11.36,0.64-22.5,5.66-33.41
		c5.32-11.7,13.52-21.18,24.6-28.44C1618.12,2204.75,1629.5,2200.83,1642.62,2199.39z"/>
	<path d="M1729.76,2188.41l46.6-14.11c9.43-2.86,16.24-5.13,20.45-6.84c4.2-1.7,8.17-3.78,11.92-6.23c1.16-0.75,2.1-1.23,2.83-1.45
		c3.14-0.95,6.44-0.1,9.88,2.55c5.65,4.29,9.66,10.34,12.02,18.13c1.19,3.93,1.3,7.28,0.32,10.05c-0.98,2.77-2.91,4.59-5.82,5.47
		c-1.99,0.6-3.67,0.67-5.04,0.19c-1.37-0.48-3.42-1.85-6.15-4.13c-3.88-3.24-8.07-4.93-12.56-5.05c-4.49-0.12-11.39,1.22-20.7,4.04
		c-6.95,2.11-10.81,4.63-11.57,7.56c-0.38,1.57-0.31,3.5,0.21,5.78c0.53,2.28,2.18,8.02,4.96,17.2c1.1,3.63,2.38,5.7,3.86,6.21
		s4.78-0.01,9.92-1.57c2.54-0.77,4.22-1.85,5.05-3.26c0.83-1.41,0.98-3.52,0.46-6.33c-0.64-3.63-0.93-6.17-0.87-7.61
		c0.06-1.44,0.55-2.82,1.46-4.15c0.94-1.47,2.25-2.46,3.95-2.98c2.48-0.75,4.95-0.21,7.42,1.61c1.8,1.37,3.81,4.14,6.03,8.32
		c2.22,4.18,4.07,8.68,5.53,13.52c2.89,9.55,3.78,17.83,2.67,24.83c-0.62,3.82-2.6,6.23-5.92,7.24c-2.06,0.62-3.64,0.52-4.74-0.3
		c-1.11-0.82-2.38-2.83-3.8-6.02c-2.98-6.55-8-8.76-15.07-6.62c-2.72,0.82-4.32,2.25-4.79,4.27s-0.01,5.36,1.4,10.02
		c0.86,2.84,2.17,6.45,3.93,10.84c1.76,4.38,3.06,7.24,3.93,8.56c1.03,1.67,2.91,2.47,5.63,2.4c2.72-0.06,7.01-0.98,12.87-2.76
		c9.07-2.75,15.54-5.98,19.43-9.7c3.89-3.72,6.36-9.07,7.41-16.05c0.63-4.02,1.44-6.84,2.44-8.46c0.99-1.62,2.58-2.76,4.76-3.42
		c2.54-0.77,4.97-0.3,7.3,1.4c2.33,1.7,4,4.22,5,7.54c1.1,3.63,1.53,8.44,1.31,14.45c-0.23,6.01-1.06,11.54-2.5,16.59
		c-0.77,2.48-1.5,4.2-2.2,5.17c-0.7,0.97-1.74,1.67-3.13,2.09c-1.15,0.35-2.87,0.67-5.15,0.97c-4.09,0.45-9.39,1.56-15.91,3.33
		l-76.88,23.28c-3.08,0.93-5.68,0.98-7.78,0.13c-2.1-0.85-3.53-2.51-4.28-4.99c-0.53-1.75-0.55-3.13-0.07-4.14
		c0.49-1,1.85-2.51,4.08-4.5c1.58-1.33,2.63-2.71,3.16-4.12c0.53-1.41,0.7-3.31,0.5-5.69c-0.77-9.73-3.5-22.33-8.18-37.8
		c-7.07-23.33-12.97-37.61-17.72-42.83c-0.97-1.03-1.89-1.67-2.76-1.93c-0.87-0.26-2.56-0.38-5.05-0.35
		c-3.76,0.02-6.17-1.76-7.25-5.33c-0.58-1.93-0.53-3.83,0.16-5.69c0.69-1.86,1.9-3.31,3.63-4.36
		C1718.51,2192.11,1722.99,2190.46,1729.76,2188.41z"/>
	<path d="M1917.22,2198.06c-2.13,1.1-3.16,2.45-3.08,4.05c0.08,1.6,1.34,4.75,3.78,9.46c3.69,7.12,7.01,12.44,9.97,15.96
		c0.86,0.98,1.73,1.63,2.61,1.95c0.88,0.33,2.34,0.53,4.37,0.62c4.32,0.11,7.27,1.67,8.84,4.7c1.92,3.7,0.93,7.54-2.95,11.5
		c-3.88,3.97-11.41,8.84-22.56,14.62c-20.75,10.75-33.16,12.19-37.22,4.34c-0.7-1.35-0.95-2.58-0.75-3.72
		c0.2-1.13,1.01-2.99,2.44-5.59c1.62-2.9,2.3-5.69,2.02-8.35c-0.28-2.66-1.66-6.8-4.14-12.42c-1.78-4.13-9.03-18.47-21.75-43.03
		c-4.04-7.79-7.17-12.89-9.41-15.29c-2.24-2.4-4.98-3.57-8.23-3.53c-3.08,0.1-5.29-0.12-6.64-0.67c-1.35-0.55-2.43-1.6-3.24-3.17
		c-1.07-2.07-1.21-4.3-0.41-6.67c0.8-2.37,2.44-4.66,4.92-6.87c2.09-1.86,5.24-3.89,9.45-6.07c1.85-0.96,6.62-3.07,14.32-6.35
		c1.46-0.61,3.7-1.71,6.73-3.27c5.05-2.61,11.6-6.44,19.67-11.46c5.12-3.15,8.75-5.28,10.88-6.38c12-6.21,23.42-8.47,34.26-6.76
		c9.77,1.56,17.05,6.96,21.84,16.21c2.67,5.16,3.87,10.5,3.6,16.01c-0.27,5.51-2.02,10.45-5.23,14.82
		c-1.33,1.83-1.67,3.36-1.04,4.59c0.84,1.63,2.9,2.23,6.17,1.82c6.99-0.92,12.98,0.07,17.96,2.96c4.98,2.9,10.37,8.5,16.17,16.8
		c2.42,3.44,4.39,5.46,5.91,6.06c1.52,0.6,4.28,0.5,8.28-0.29c1.24-0.21,2.51,0.04,3.8,0.75c1.29,0.72,2.29,1.75,2.99,3.09
		c0.9,1.74,1.13,3.84,0.7,6.3c-0.43,2.46-1.45,4.75-3.06,6.87c-3.58,4.63-9.46,9.06-17.65,13.3c-10.94,5.66-20.25,6.83-27.96,3.49
		c-3.47-1.48-6.96-3.79-10.48-6.95c-3.52-3.15-8.44-8.36-14.75-15.61c-4.05-4.66-7.64-7.57-10.76-8.72
		S1921.01,2196.31,1917.22,2198.06z M1890.12,2157.69l9.23,20.08c0.09,0.17,0.22,0.42,0.39,0.76c1.04,2.02,2.04,3.21,2.97,3.58
		c0.94,0.37,2.3,0.09,4.1-0.84c4.93-2.55,7.86-5.69,8.79-9.4c0.92-3.71-0.07-8.37-2.97-13.98c-5.6-10.82-12.25-14.24-19.93-10.27
		c-2.19,1.13-3.47,2.44-3.84,3.91C1888.48,2153,1888.9,2155.05,1890.12,2157.69z"/>
	<path d="M2038.49,2021.48c6.78-6.15,15.23-11.08,25.33-14.8c13.25-4.85,26.87-5.11,40.88-0.76c12.95,4.03,23.64,10.7,32.09,20
		c9.46,10.43,14.95,22.63,16.46,36.61c0.76,6.47,0.4,13.09-1.07,19.83c-1.47,6.75-3.83,12.7-7.07,17.86
		c-0.82,1.35-0.96,2.32-0.41,2.93c1.53,1.68,4.93,1.28,10.22-1.21s10.59-6.16,15.93-10.99c3.27-2.97,5.79-6.45,7.55-10.43
		c0.35-0.83,0.76-1.46,1.23-1.88c0.75-0.68,2.03-0.77,3.84-0.28c1.81,0.49,3.24,1.32,4.3,2.49c2.16,2.38,2.96,6.27,2.38,11.65
		c-0.58,5.47-2.57,11.2-5.97,17.18c-3.4,5.98-7.67,11.31-12.82,15.97c-6.03,5.47-13.61,10.26-22.73,14.35
		c-9.12,4.09-23.32,9.09-42.61,14.99c-3.45,1-7.02,2.46-10.71,4.41c-3.69,1.94-6.52,3.81-8.49,5.59c-0.65,0.6-1.39,1.39-2.19,2.38
		c-0.47,0.51-0.9,0.94-1.27,1.28c-0.89,0.81-1.98,1.09-3.26,0.85c-1.29-0.24-2.46-0.95-3.52-2.12c-1.95-2.15-2.88-4.59-2.8-7.31
		c0.21-4.28,1.95-7.91,5.22-10.88l3.85-3.37c1.03-0.93,1.12-1.87,0.27-2.8c-0.64-0.7-2.93-1.3-6.89-1.81
		c-8.89-1.06-16.34-2.83-22.34-5.31c-9.33-3.9-17.37-9.56-24.12-17c-8.91-9.82-14.29-20.97-16.14-33.45
		c-1.78-12.11,0.21-24.62,5.98-37.53C2024.39,2037.38,2030.68,2028.56,2038.49,2021.48z M2050,2048.12
		c-3.69,3.35-5.45,7.23-5.26,11.62c0.19,4.39,2.28,8.78,6.27,13.18c4.71,5.19,10.67,10.1,17.89,14.72
		c7.22,4.62,14.72,8.35,22.49,11.19c10.45,3.82,18.53,3.14,24.24-2.04c3.7-3.35,5.58-7.41,5.66-12.16c0.07-4.76-1.69-9.12-5.3-13.1
		c-4.75-5.24-11.1-10.35-19.04-15.35c-7.94-4.99-15.65-8.7-23.13-11.12C2064.1,2041.86,2056.16,2042.88,2050,2048.12z"/>
	<path d="M2210.06,1896.5l18.59,13.74c11.22,8.29,18.55,15.01,21.99,20.13c7.19,10.89,8.47,24.08,3.84,39.59
		c-2.74,9.44-7.56,18.83-14.46,28.18c-12.05,16.3-25.58,26.49-40.59,30.54c-7.34,1.96-14.19,2-20.57,0.11
		c-6.38-1.89-14.32-6.34-23.81-13.36c-3.71-2.74-9.71-7.37-18-13.89c-5.88-4.58-9.78-7.58-11.71-9.01
		c-4.21-3.12-7.37-4.95-9.46-5.52c-2.1-0.56-4.64-0.31-7.64,0.78c-4.66,1.74-8.34,1.61-11.03-0.38c-1.98-1.46-3.1-3.61-3.37-6.44
		c-0.27-2.83,0.35-5.84,1.86-9.05c3.01-6.41,7.33-13.43,12.96-21.05c6.19-8.38,11.97-14.87,17.33-19.47
		c5.23-4.53,10.01-5.2,14.33-2.02c2.13,1.58,3.25,3.62,3.36,6.13c0.04,0.58-0.3,2.69-1.02,6.32c-0.49,2.15-0.01,4.21,1.44,6.19
		c1.45,1.97,4.33,4.56,8.65,7.74c4.42,3.26,13.82,10.53,28.19,21.78c8.55,6.71,16.95,9.27,25.2,7.67
		c6.76-1.29,12.51-5.13,17.24-11.53c3-4.06,4.97-8.3,5.92-12.71s0.75-8.43-0.56-12.07c-0.97-2.84-2.48-5.41-4.54-7.72
		c-2.06-2.31-5.2-5.02-9.42-8.14l-16.76-12.38c-13.04-9.24-20.84-14.44-23.41-15.59c-2.57-1.15-5.52-0.8-8.85,1.06
		c-3.12,1.78-5.52,2.79-7.2,3.04c-1.68,0.25-3.23-0.15-4.65-1.2c-3.05-2.25-3.93-5.71-2.64-10.37c1.29-4.66,4.89-11.01,10.83-19.03
		c5.82-7.87,10.71-13.07,14.7-15.58c3.98-2.52,7.47-2.67,10.46-0.45c1.47,1.09,2.34,2.2,2.6,3.33c0.26,1.13,0.17,3.54-0.27,7.22
		c-0.46,3.82,0.04,6.56,1.51,8.24C2192.52,1883.01,2198.86,1888.06,2210.06,1896.5z"/>
	<path d="M2184.25,1844.46l21.07-43.89c4.27-8.88,7.19-15.45,8.77-19.69c1.58-4.25,2.74-8.58,3.46-13c0.23-1.36,0.51-2.38,0.84-3.06
		c1.42-2.96,4.27-4.81,8.55-5.56c6.98-1.27,14.15-0.14,21.49,3.38c3.7,1.78,6.24,3.96,7.62,6.55c1.38,2.59,1.42,5.25,0.11,7.98
		c-0.9,1.88-1.99,3.16-3.27,3.84c-1.27,0.69-3.67,1.27-7.2,1.75c-5.02,0.68-9.09,2.62-12.21,5.85c-3.13,3.23-6.79,9.23-11,17.99
		c-3.14,6.55-3.89,11.09-2.24,13.64c0.9,1.34,2.37,2.59,4.4,3.74c2.04,1.16,7.38,3.81,16.04,7.96c3.42,1.64,5.81,2.09,7.18,1.35
		c1.37-0.74,3.22-3.53,5.54-8.37c1.15-2.39,1.48-4.37,1.01-5.93c-0.48-1.56-1.93-3.1-4.35-4.61c-3.11-1.98-5.17-3.48-6.19-4.5
		c-1.02-1.01-1.71-2.31-2.07-3.89c-0.45-1.69-0.29-3.33,0.47-4.92c1.12-2.33,3.19-3.79,6.2-4.38c2.23-0.4,5.63-0.01,10.21,1.17
		c4.58,1.18,9.15,2.87,13.7,5.05c9,4.32,15.7,9.25,20.11,14.8c2.39,3.04,2.84,6.13,1.33,9.26c-0.93,1.94-2.07,3.04-3.42,3.3
		c-1.35,0.26-3.69-0.16-7.01-1.27c-6.84-2.23-11.86-0.02-15.06,6.64c-1.23,2.56-1.26,4.7-0.09,6.42s3.95,3.63,8.33,5.73
		c2.68,1.29,6.22,2.76,10.64,4.43c4.42,1.67,7.41,2.63,8.96,2.89c1.93,0.37,3.79-0.48,5.57-2.53c1.79-2.05,4.01-5.83,6.66-11.36
		c4.1-8.54,6.09-15.5,5.98-20.88c-0.11-5.38-2.39-10.82-6.83-16.31c-2.54-3.18-4.07-5.68-4.59-7.51c-0.52-1.83-0.29-3.77,0.69-5.82
		c1.15-2.39,3.14-3.87,5.97-4.44c2.83-0.57,5.81-0.1,8.94,1.4c3.42,1.64,7.26,4.57,11.54,8.8c4.28,4.23,7.79,8.58,10.55,13.05
		c1.31,2.24,2.08,3.94,2.33,5.11c0.24,1.17,0.05,2.41-0.58,3.72c-0.52,1.08-1.44,2.56-2.77,4.45c-2.43,3.32-5.2,7.98-8.29,13.99
		l-34.77,72.41c-1.39,2.9-3.11,4.85-5.16,5.82c-2.05,0.98-4.24,0.91-6.57-0.21c-1.65-0.79-2.68-1.71-3.09-2.75
		c-0.41-1.04-0.6-3.06-0.56-6.05c0.08-2.06-0.22-3.77-0.91-5.11c-0.68-1.34-1.97-2.75-3.86-4.22c-7.69-6-18.83-12.51-33.4-19.5
		c-21.98-10.55-36.49-15.84-43.56-15.87c-1.41,0.02-2.51,0.27-3.29,0.73c-0.78,0.47-2.01,1.63-3.67,3.49
		c-2.53,2.78-5.47,3.37-8.83,1.75c-1.82-0.88-3.18-2.19-4.09-3.96c-0.9-1.76-1.16-3.64-0.77-5.62
		C2179.39,1855.26,2181.19,1850.84,2184.25,1844.46z"/>
	<path d="M2234.27,1733.31l13.15-46.88c2.66-9.49,4.41-16.46,5.23-20.92c0.83-4.46,1.21-8.92,1.15-13.4
		c-0.01-1.38,0.09-2.43,0.3-3.16c0.89-3.16,3.38-5.48,7.46-6.96c6.66-2.46,13.91-2.59,21.75-0.39c3.95,1.11,6.83,2.82,8.65,5.13
		c1.81,2.31,2.31,4.93,1.49,7.85c-0.56,2.01-1.41,3.46-2.55,4.35c-1.14,0.9-3.4,1.88-6.78,2.97c-4.82,1.53-8.5,4.16-11.02,7.88
		c-2.52,3.72-5.09,10.26-7.72,19.63c-1.96,6.99-1.91,11.6,0.16,13.82c1.12,1.17,2.78,2.14,4.98,2.92c2.21,0.78,7.93,2.47,17.17,5.06
		c3.65,1.02,6.08,1.05,7.31,0.08c1.22-0.97,2.56-4.04,4.01-9.2c0.72-2.55,0.71-4.56-0.04-6.01c-0.74-1.45-2.44-2.72-5.09-3.79
		c-3.41-1.41-5.7-2.53-6.88-3.36c-1.18-0.82-2.08-1.98-2.72-3.47c-0.74-1.58-0.87-3.23-0.39-4.93c0.7-2.49,2.48-4.29,5.35-5.39
		c2.12-0.78,5.54-0.99,10.26-0.62c4.72,0.37,9.51,1.24,14.37,2.61c9.61,2.7,17.06,6.4,22.37,11.1c2.88,2.58,3.86,5.54,2.92,8.89
		c-0.58,2.07-1.51,3.35-2.8,3.84c-1.29,0.49-3.66,0.48-7.12-0.03c-7.12-1.02-11.69,2.03-13.68,9.15c-0.77,2.74-0.43,4.85,1.03,6.34
		c1.45,1.49,4.52,2.89,9.2,4.21c2.86,0.8,6.61,1.64,11.25,2.52c4.64,0.88,7.75,1.31,9.33,1.29c1.96,0.03,3.64-1.12,5.05-3.45
		c1.41-2.33,2.94-6.44,4.59-12.34c2.56-9.12,3.32-16.32,2.27-21.6c-1.04-5.28-4.23-10.24-9.55-14.88c-3.05-2.69-4.99-4.89-5.82-6.6
		c-0.83-1.71-0.94-3.66-0.33-5.85c0.72-2.55,2.42-4.35,5.11-5.41c2.69-1.05,5.71-1.1,9.05-0.17c3.65,1.02,7.94,3.25,12.89,6.67
		c4.94,3.42,9.16,7.1,12.65,11.03c1.67,1.98,2.73,3.52,3.18,4.63c0.44,1.11,0.47,2.36,0.08,3.76c-0.33,1.16-0.98,2.78-1.96,4.86
		c-1.82,3.69-3.74,8.76-5.74,15.21l-21.7,77.34c-0.87,3.1-2.23,5.31-4.07,6.63s-4.01,1.63-6.51,0.93c-1.76-0.49-2.94-1.22-3.52-2.17
		c-0.58-0.95-1.12-2.9-1.6-5.86c-0.28-2.05-0.87-3.67-1.78-4.88c-0.91-1.2-2.42-2.37-4.53-3.49c-8.62-4.58-20.71-9.06-36.28-13.42
		c-23.47-6.58-38.68-9.28-45.64-8.08c-1.39,0.27-2.42,0.7-3.12,1.29c-0.69,0.59-1.69,1.95-3.01,4.07c-2.01,3.18-4.8,4.26-8.39,3.25
		c-1.95-0.54-3.52-1.61-4.71-3.19c-1.19-1.58-1.77-3.38-1.73-5.4C2231.35,1744.79,2232.36,1740.12,2234.27,1733.31z"/>
	<path d="M2272.29,1584.38l45.08-43.58c4.21-4.08,6.39-7.1,6.55-9.05c0.27-3.27-3.08-5.2-10.07-5.78
		c-7.93-0.66-13.38-0.64-16.35,0.06c-2.97,0.7-5.31,2.5-7.01,5.4c-1.4,2.35-2.82,3.98-4.26,4.87c-1.44,0.89-3.22,1.25-5.37,1.07
		c-5.29-0.44-8.38-4.34-9.29-11.71c-0.38-3.01-0.27-8.2,0.35-15.56c0.79-9.5,1.91-16.03,3.34-19.59c2.25-5.64,5.82-8.26,10.73-7.85
		c4.09,0.34,6.98,2.96,8.66,7.85c0.66,1.96,1.28,3.31,1.85,4.05c0.57,0.75,1.47,1.42,2.68,2.03c4.01,2.04,11.81,3.58,23.38,4.61
		l30.77,2.57c4.72,0.39,11.17,0.9,19.36,1.52c11.08,0.86,19.02,2.19,23.81,3.98c5.96,2.21,8.76,5.55,8.38,10.01
		c-0.16,1.95-0.71,3.6-1.65,4.95c-0.93,1.35-3.02,3.54-6.25,6.56l-54.79,51.8c-3.85,3.61-5.88,6.7-6.1,9.28
		c-0.32,3.84,4.84,6.2,15.47,7.09c8.75,0.73,14.77,0.74,18.06,0.03c3.29-0.71,5.82-2.51,7.58-5.4c2.43-4.04,5.31-5.93,8.64-5.65
		c8.75,0.73,12.34,10.5,10.77,29.32c-0.71,8.5-2.38,15-5,19.5c-2.62,4.5-5.98,6.58-10.07,6.24c-2.14-0.18-3.71-0.75-4.7-1.72
		c-1-0.97-2.28-3.07-3.85-6.31c-1.51-3.1-4.48-5.16-8.9-6.16c-8.03-1.75-19.66-3.25-34.89-4.52c-16.24-1.35-28.15-1.4-35.73-0.13
		c-2.76,0.47-4.85,1.18-6.26,2.14c-1.41,0.96-2.82,2.62-4.22,4.97c-1.62,2.72-3.14,4.57-4.55,5.56c-1.41,0.99-3.06,1.41-4.95,1.25
		c-6.04-0.5-9.42-6.01-10.12-16.53c-0.21-3.57,0.05-9.75,0.79-18.57c0.42-5.03,1.12-8.67,2.1-10.9
		C2267.25,1589.87,2269.26,1587.29,2272.29,1584.38z"/>
	<path d="M2304.91,1423.17c-0.73-7.1,1.24-13.52,5.92-19.28c4.67-5.81,10.71-9.1,18.12-9.87c7.41-0.76,14,1.22,19.76,5.96
		c5.75,4.61,9,10.63,9.76,18.04c0.77,7.41-1.19,13.96-5.88,19.65c-4.67,5.81-10.68,9.1-18.03,9.86c-7.6,0.78-14.22-1.2-19.85-5.95
		C2308.95,1436.85,2305.68,1430.71,2304.91,1423.17z"/>
</g>
</svg>
